<svg id="Layer_1" data-name="Layer 1" xmlns="http://www.w3.org/2000/svg" viewBox="0 0 1243 287"><defs><style>.cls-1{fill:#44445d;}.cls-2{fill:#a1a1a1;}.cls-3{fill:#006;}.cls-4{fill:#fff;}</style></defs><title>crb-402</title><rect class="cls-1" x="0.5" y="-0.78" width="478.5" height="47.57"/><rect class="cls-1" x="494" y="-0.78" width="470" height="47.57"/><rect class="cls-1" x="979" y="-0.84" width="264" height="47.7"/><rect class="cls-2" x="0.5" y="61.31" width="478.5" height="225.58"/><rect class="cls-2" x="828" y="61.31" width="136" height="225.58"/><rect class="cls-2" x="979" y="61" width="264" height="226.19"/><polygon class="cls-3" points="479 213.65 494 232.1 479 250.55 479 213.65"/><polygon class="cls-3" points="964 155.65 979 174.1 964 192.55 964 155.65"/><polygon class="cls-3" points="814 93.65 829 112.1 814 130.55 814 93.65"/><polygon class="cls-3" points="479 93.65 494 112.1 479 130.55 479 93.65"/><polygon class="cls-3" points="814 213.65 829 232.1 814 250.55 814 213.65"/><path class="cls-4" d="M16.54,17.1h2.94v5.34h.08l3.88-5.34h3.24l-3.94,5.2,4.66,7.85H24.18L21,24.64l-1.52,2v3.51H16.54Z"/><path class="cls-4" d="M28.82,17.1H37v2.48H31.76V22.2H36.2v2.46H31.76v3h5.42v2.49H28.82Z"/><path class="cls-4" d="M42,25.5l-3.94-8.4h3.16l1.16,3c.36,1,.7,1.88,1.06,2.88h.08c.38-1,.74-1.9,1.1-2.88l1.18-3H48.9L45,25.5v4.65H42Z"/><path class="cls-4" d="M54.28,17.1h8.16v2.48H57.22V22.2h4.44v2.46H57.22v3h5.42v2.49H54.28Z"/><path class="cls-4" d="M65.24,17.1h2.94V27.66h5.16v2.49h-8.1Z"/><path class="cls-4" d="M75.6,17.1h2.94v13H75.6Z"/><path class="cls-4" d="M81,23.7c0-4.32,2.88-6.84,6.36-6.84a5.63,5.63,0,0,1,4.1,1.7l-1.54,1.88a3.46,3.46,0,0,0-2.46-1c-2,0-3.44,1.58-3.44,4.2s1.22,4.24,3.66,4.24a2.32,2.32,0,0,0,1.4-.4V25.2H86.92V22.8h4.76v6a6.24,6.24,0,0,1-4.3,1.59C83.8,30.39,81,28.08,81,23.7Z"/><path class="cls-4" d="M94.38,17.1h2.94v13H94.38Z"/><path class="cls-4" d="M100.4,17.1h4.46c2.7,0,4.8.74,4.8,3.24a3,3,0,0,1-1.7,2.82v.08a3,3,0,0,1,2.34,3.06c0,2.66-2.24,3.85-5.06,3.85H100.4Zm4.32,5.22c1.44,0,2.06-.6,2.06-1.54s-.66-1.4-2-1.4h-1.4v2.94Zm.28,5.54c1.6,0,2.42-.56,2.42-1.76s-.8-1.6-2.42-1.6h-1.66v3.36Z"/><path class="cls-4" d="M112.5,17.1h2.94v13H112.5Z"/><path class="cls-4" d="M118.52,17.1h2.94V27.66h5.16v2.49h-8.1Z"/><path class="cls-4" d="M128.88,17.1h2.94v13h-2.94Z"/><path class="cls-4" d="M137.44,19.58h-3.58V17.1H144v2.48H140.4V30.15h-3Z"/><path class="cls-4" d="M147.9,25.5,144,17.1h3.16l1.16,3c.36,1,.7,1.88,1.06,2.88h.08c.38-1,.74-1.9,1.1-2.88l1.18-3h3.08l-3.94,8.4v4.65H147.9Z"/><path class="cls-4" d="M159.54,23.7c0-4.32,2.86-6.84,6.16-6.84a5.51,5.51,0,0,1,3.92,1.7l-1.56,1.88a3.33,3.33,0,0,0-2.3-1c-1.78,0-3.2,1.58-3.2,4.2s1.24,4.24,3.16,4.24a3.48,3.48,0,0,0,2.54-1.22l1.56,1.84a5.35,5.35,0,0,1-4.22,1.93C162.3,30.39,159.54,28.08,159.54,23.7Z"/><path class="cls-4" d="M171.8,17.1h4.7c2.76,0,5,1,5,4.06a3.81,3.81,0,0,1-2.32,3.76l3,5.23h-3.3l-2.5-4.71h-1.62v4.71H171.8Zm4.46,6c1.54,0,2.38-.66,2.38-1.94s-.84-1.72-2.38-1.72h-1.52V23.1Z"/><path class="cls-4" d="M184.06,17.1H187v13h-2.94Z"/><path class="cls-4" d="M192.62,19.58H189V17.1h10.12v2.48h-3.58V30.15h-3Z"/><path class="cls-4" d="M201.2,17.1h8.16v2.48h-5.22V22.2h4.44v2.46h-4.44v3h5.42v2.49H201.2Z"/><path class="cls-4" d="M212.16,17.1h4.7c2.76,0,5,1,5,4.06a3.81,3.81,0,0,1-2.32,3.76l3,5.23h-3.3l-2.5-4.71H215.1v4.71h-2.94Zm4.46,6c1.54,0,2.38-.66,2.38-1.94s-.84-1.72-2.38-1.72H215.1V23.1Z"/><path class="cls-4" d="M224.42,17.1h2.94v13h-2.94Z"/><path class="cls-4" d="M232.86,17.1h3.54l4.08,13h-3.12l-.8-3.11h-4l-.8,3.11h-3Zm.32,7.64H236l-.3-1.2c-.36-1.3-.72-2.84-1.06-4.2h-.08c-.32,1.38-.66,2.9-1,4.2Z"/><path class="cls-4" d="M15.58,85.3l3.57-1.24,2.29-.75v-.07l-2.29-.75-3.57-1.24V80l7.29,2.6V83.9l-7.29,2.6Zm0,2.75h7.29v1H15.58Z"/><path class="cls-4" d="M28.19,88h2.48V80h-2v-.9a6.43,6.43,0,0,0,2.3-.8h1.07V88h2.24V89.1H28.19Z"/><path class="cls-4" d="M36,86.33a3.42,3.42,0,0,1,2-2.92v-.07a3.09,3.09,0,0,1-1.51-2.5,2.84,2.84,0,0,1,3.08-2.78,2.81,2.81,0,0,1,3.06,2.88,3.59,3.59,0,0,1-1.5,2.62v.07a3.13,3.13,0,0,1,1.89,2.79c0,1.61-1.4,2.89-3.5,2.89S36,88.05,36,86.33Zm5.72,0c0-1.4-1.38-1.91-2.94-2.54a3,3,0,0,0-1.52,2.37,2.15,2.15,0,0,0,2.33,2.07A1.93,1.93,0,0,0,41.71,86.37ZM41.45,81a1.81,1.81,0,0,0-1.89-1.92,1.68,1.68,0,0,0-1.75,1.75c0,1.29,1.19,1.84,2.5,2.35A2.94,2.94,0,0,0,41.45,81Z"/><path class="cls-4" d="M47.71,92.49,48,91.38a2.43,2.43,0,0,0,.63.12c.93,0,1.53-.75,1.87-1.77l.18-.61-3.31-8.28h1.44l1.69,4.58c.25.71.54,1.56.8,2.32h.06c.24-.74.48-1.59.7-2.32l1.48-4.58h1.36l-3.11,8.94c-.58,1.64-1.43,2.88-3.09,2.88A2.76,2.76,0,0,1,47.71,92.49Z"/><path class="cls-4" d="M55.8,85c0-2.7,1.82-4.35,3.7-4.35,2.11,0,3.3,1.51,3.3,3.87a4.68,4.68,0,0,1,0,.8H57.18a2.74,2.74,0,0,0,2.75,2.88A3.78,3.78,0,0,0,62,87.54l.49.92a4.91,4.91,0,0,1-2.72.85C57.55,89.31,55.8,87.69,55.8,85Zm5.78-.68c0-1.67-.75-2.57-2-2.57a2.55,2.55,0,0,0-2.38,2.57Z"/><path class="cls-4" d="M64.09,87c0-1.8,1.55-2.7,5.07-3.09,0-1.06-.34-2.08-1.7-2.08a4.48,4.48,0,0,0-2.46.89l-.55-1a6.17,6.17,0,0,1,3.25-1.07c2,0,2.87,1.34,2.87,3.4V89.1H69.42l-.12-1h0a4.46,4.46,0,0,1-2.74,1.19A2.25,2.25,0,0,1,64.09,87Zm5.07.12V84.79c-2.75.34-3.71,1-3.71,2.07a1.29,1.29,0,0,0,1.47,1.33A3.37,3.37,0,0,0,69.16,87.08Z"/><path class="cls-4" d="M73.17,80.84h1.16l.12,1.5h0a2.82,2.82,0,0,1,2.34-1.7,2.05,2.05,0,0,1,.89.17L77.46,82a2.48,2.48,0,0,0-.8-.13c-.7,0-1.53.51-2.09,1.9v5.3h-1.4Z"/><path class="cls-4" d="M78.09,88.17l.69-.94a3.73,3.73,0,0,0,2.43,1c1.09,0,1.63-.58,1.63-1.29s-1-1.23-1.88-1.57c-1.17-.42-2.42-1-2.42-2.38s1.06-2.34,2.86-2.34a4.22,4.22,0,0,1,2.57.93l-.68.89a3,3,0,0,0-1.89-.73c-1,0-1.51.56-1.51,1.19,0,.78.85,1.07,1.78,1.42,1.19.45,2.52.94,2.52,2.5,0,1.35-1.07,2.47-3,2.47A5,5,0,0,1,78.09,88.17Z"/><path class="cls-4" d="M88.91,85c0-2.77,1.81-4.35,3.83-4.35s3.82,1.58,3.82,4.35-1.8,4.32-3.82,4.32S88.91,87.73,88.91,85Zm6.21,0c0-1.9-1-3.2-2.38-3.2s-2.38,1.3-2.38,3.2,1,3.16,2.38,3.16S95.12,86.88,95.12,85Z"/><path class="cls-4" d="M99,82H97.86v-1L99,80.84V79.53c0-1.68.76-2.73,2.41-2.73a3.85,3.85,0,0,1,1.38.27l-.31,1.07a2.23,2.23,0,0,0-.93-.2c-.78,0-1.16.54-1.16,1.59v1.31h1.75V82h-1.75V89.1H99Z"/><path class="cls-4" d="M106.59,87c0-1.8,1.55-2.7,5.07-3.09,0-1.06-.34-2.08-1.7-2.08a4.55,4.55,0,0,0-2.47.89l-.54-1a6.17,6.17,0,0,1,3.25-1.07c2,0,2.87,1.34,2.87,3.4V89.1h-1.16l-.11-1h-.06A4.43,4.43,0,0,1,109,89.31,2.25,2.25,0,0,1,106.59,87Zm5.07.12V84.79c-2.75.34-3.71,1-3.71,2.07a1.29,1.29,0,0,0,1.47,1.33A3.39,3.39,0,0,0,111.66,87.08Z"/><path class="cls-4" d="M115,90.69a2.41,2.41,0,0,1,1.21-1.88v-.06a1.53,1.53,0,0,1-.73-1.35,1.93,1.93,0,0,1,.9-1.53v-.06a2.92,2.92,0,0,1,2-5.17,3.24,3.24,0,0,1,1.17.2h2.87v1.07h-1.69a2.42,2.42,0,0,1,.68,1.7,2.84,2.84,0,0,1-3,2.88,3,3,0,0,1-1.24-.29,1.23,1.23,0,0,0-.53,1c0,.53.34.9,1.46.9h1.6c1.92,0,2.89.6,2.89,2,0,1.53-1.61,2.85-4.18,2.85C116.44,92.91,115,92.11,115,90.69Zm6.24-.43c0-.76-.59-1-1.66-1h-1.43a3.66,3.66,0,0,1-1.07-.14,1.74,1.74,0,0,0-.85,1.4c0,.88.9,1.44,2.39,1.44S121.28,91.13,121.28,90.26Zm-1.07-6.68a1.76,1.76,0,1,0-3.5,0,1.76,1.76,0,1,0,3.5,0Z"/><path class="cls-4" d="M123.39,85c0-2.7,1.82-4.35,3.71-4.35,2.1,0,3.29,1.51,3.29,3.87a4.68,4.68,0,0,1,0,.8h-5.57a2.74,2.74,0,0,0,2.75,2.88,3.75,3.75,0,0,0,2.06-.65l.49.92a4.91,4.91,0,0,1-2.72.85C125.14,89.31,123.39,87.69,123.39,85Zm5.78-.68c0-1.67-.75-2.57-2-2.57a2.55,2.55,0,0,0-2.38,2.57Z"/><path class="cls-4" d="M135.32,87c0-1.8,1.55-2.7,5.07-3.09,0-1.06-.34-2.08-1.7-2.08a4.55,4.55,0,0,0-2.47.89l-.54-1a6.17,6.17,0,0,1,3.25-1.07c2,0,2.87,1.34,2.87,3.4V89.1h-1.16l-.12-1h-.05a4.43,4.43,0,0,1-2.73,1.19A2.25,2.25,0,0,1,135.32,87Zm5.07.12V84.79c-2.75.34-3.71,1-3.71,2.07a1.29,1.29,0,0,0,1.47,1.33A3.39,3.39,0,0,0,140.39,87.08Z"/><path class="cls-4" d="M144.4,80.84h1.16l.12,1.19h0a3.89,3.89,0,0,1,2.77-1.39c1.73,0,2.51,1.12,2.51,3.23V89.1h-1.39v-5c0-1.55-.48-2.21-1.56-2.21-.85,0-1.43.44-2.27,1.27v6H144.4Z"/><path class="cls-4" d="M153.1,85c0-2.69,1.7-4.35,3.59-4.35a3.42,3.42,0,0,1,2.31,1l-.06-1.41V77h1.41V89.1h-1.16l-.12-1h0a3.77,3.77,0,0,1-2.5,1.17C154.45,89.31,153.1,87.74,153.1,85Zm5.84,2V82.68a2.89,2.89,0,0,0-2-.87c-1.33,0-2.38,1.28-2.38,3.16s.83,3.17,2.28,3.17A2.83,2.83,0,0,0,158.94,87Z"/><path class="cls-4" d="M166.67,78h3.49c2.27,0,3.91.82,3.91,3.13a3,3,0,0,1-2.52,3.16l2.84,4.86h-1.6l-2.69-4.7h-2v4.7h-1.41ZM170,83.24c1.74,0,2.7-.71,2.7-2.16s-1-2-2.7-2h-1.87v4.15Z"/><path class="cls-4" d="M179.52,77h1L176,91.82h-1Z"/><path class="cls-4" d="M182.29,78h3.49c2.28,0,3.91.82,3.91,3.13a3,3,0,0,1-2.52,3.16L190,89.1h-1.6l-2.68-4.7h-2v4.7h-1.41Zm3.28,5.29c1.74,0,2.71-.71,2.71-2.16s-1-2-2.71-2H183.7v4.15Z"/><path class="cls-4" d="M195.37,78h1.7l2.14,6c.27.77.52,1.57.8,2.33h.06c.28-.76.5-1.56.77-2.33L203,78h1.71V89.1h-1.32V83c0-1,.12-2.31.19-3.3h-.07l-.89,2.53L200.47,88h-.94l-2.11-5.78-.88-2.53h-.07c.07,1,.17,2.31.17,3.3V89.1h-1.27Z"/><path class="cls-4" d="M207.73,78h1.69l2.15,6c.27.77.52,1.57.8,2.33h.06c.28-.76.5-1.56.77-2.33l2.11-6H217V89.1H215.7V83c0-1,.12-2.31.18-3.3h-.06l-.89,2.53L212.82,88h-.93l-2.11-5.78-.88-2.53h-.07c.07,1,.17,2.31.17,3.3V89.1h-1.27Z"/><path class="cls-4" d="M15.58,110.3l3.57-1.24,2.29-.75v-.07l-2.29-.75-3.57-1.24V105l7.29,2.6v1.26l-7.29,2.6Zm0,2.75h7.29v1H15.58Z"/><path class="cls-4" d="M27.29,112.78l.71-.92a3.7,3.7,0,0,0,2.78,1.29,2,2,0,0,0,2.24-2c0-1.29-.88-2.16-3.47-2.16v-1.07c2.31,0,3.08-.88,3.08-2a1.68,1.68,0,0,0-1.87-1.72,3.26,3.26,0,0,0-2.31,1.11l-.75-.88a4.42,4.42,0,0,1,3.11-1.36c1.89,0,3.25,1,3.25,2.75a2.68,2.68,0,0,1-2,2.58v.07a2.81,2.81,0,0,1,2.35,2.75c0,1.93-1.58,3.1-3.57,3.1A4.61,4.61,0,0,1,27.29,112.78Z"/><path class="cls-4" d="M40.09,105.84h1.16l.12,1h.05a4.31,4.31,0,0,1,2.63-1.15c2.13,0,3.27,1.65,3.27,4.21,0,2.81-1.69,4.46-3.57,4.46a3.87,3.87,0,0,1-2.3-1l0,1.44v2.79H40.09Zm5.78,4c0-1.81-.61-3-2.18-3a3.51,3.51,0,0,0-2.21,1.12v4.34a3.28,3.28,0,0,0,2,.87C44.87,113.14,45.87,111.89,45.87,109.85Z"/><path class="cls-4" d="M49.53,105.84h1.15l.12,1.5h.05a2.82,2.82,0,0,1,2.35-1.7,2,2,0,0,1,.88.17L53.81,107a2.44,2.44,0,0,0-.8-.13c-.7,0-1.53.51-2.09,1.9v5.3H49.53Z"/><path class="cls-4" d="M55.2,103.23a.94.94,0,0,1,1.87,0,.94.94,0,0,1-1.87,0Zm.23,2.61h1.39v8.26H55.43Z"/><path class="cls-4" d="M59,110c0-2.77,1.81-4.35,3.83-4.35s3.82,1.58,3.82,4.35-1.8,4.32-3.82,4.32S59,112.73,59,110Zm6.21,0c0-1.9-1-3.2-2.38-3.2s-2.38,1.3-2.38,3.2,1,3.16,2.38,3.16S65.2,111.88,65.2,110Z"/><path class="cls-4" d="M68.82,105.84H70l.12,1.5h.05a2.82,2.82,0,0,1,2.34-1.7,2.08,2.08,0,0,1,.89.17L73.1,107a2.38,2.38,0,0,0-.79-.13c-.7,0-1.53.51-2.1,1.9v5.3H68.82Z"/><path class="cls-4" d="M78.12,112.44V102h1.39v10.54c0,.44.19.61.39.61a1.32,1.32,0,0,0,.31,0l.19,1a1.82,1.82,0,0,1-.8.14C78.54,114.31,78.12,113.65,78.12,112.44Z"/><path class="cls-4" d="M82.23,103.23a.94.94,0,0,1,1.87,0,.94.94,0,0,1-1.87,0Zm.22,2.61h1.4v8.26h-1.4Z"/><path class="cls-4" d="M86.64,105.84h1.15l.12,1.19h0a3.89,3.89,0,0,1,2.77-1.39c1.74,0,2.52,1.12,2.52,3.23v5.23h-1.4v-5c0-1.55-.47-2.21-1.56-2.21A3.16,3.16,0,0,0,88,108.12v6H86.64Z"/><path class="cls-4" d="M95.32,110c0-2.7,1.82-4.35,3.71-4.35,2.11,0,3.3,1.51,3.3,3.87a6,6,0,0,1,0,.8H96.7a2.74,2.74,0,0,0,2.75,2.88,3.73,3.73,0,0,0,2.06-.65l.49.92a4.88,4.88,0,0,1-2.72.85C97.07,114.31,95.32,112.69,95.32,110Zm5.78-.68c0-1.67-.75-2.57-2-2.57a2.56,2.56,0,0,0-2.38,2.57Z"/><path class="cls-4" d="M103.45,113.17l.7-.94a3.69,3.69,0,0,0,2.43,1c1.08,0,1.63-.58,1.63-1.29s-1-1.23-1.89-1.57c-1.17-.42-2.41-1-2.41-2.38s1-2.34,2.85-2.34a4.22,4.22,0,0,1,2.57.93l-.68.89a3,3,0,0,0-1.89-.73c-1,0-1.51.56-1.51,1.19,0,.78.85,1.07,1.79,1.42,1.19.45,2.51.94,2.51,2.5,0,1.35-1.07,2.47-3,2.47A5,5,0,0,1,103.45,113.17Z"/><path class="cls-4" d="M114.28,110c0-2.77,1.8-4.35,3.82-4.35s3.83,1.58,3.83,4.35-1.81,4.32-3.83,4.32S114.28,112.73,114.28,110Zm6.2,0c0-1.9-1-3.2-2.38-3.2s-2.38,1.3-2.38,3.2,1,3.16,2.38,3.16S120.48,111.88,120.48,110Z"/><path class="cls-4" d="M124.34,107h-1.12v-1l1.12-.09v-1.31c0-1.68.77-2.73,2.41-2.73a3.76,3.76,0,0,1,1.38.27l-.3,1.07a2.27,2.27,0,0,0-.94-.2c-.78,0-1.15.54-1.15,1.59v1.31h1.75V107h-1.75v7.12h-1.4Z"/><path class="cls-4" d="M132.71,111.55V107h-1.23v-1l1.29-.09.17-2.31h1.18v2.31h2.22V107h-2.22v4.59c0,1,.32,1.6,1.27,1.6a3.14,3.14,0,0,0,.94-.22l.27,1a5.21,5.21,0,0,1-1.53.31C133.3,114.31,132.71,113.19,132.71,111.55Z"/><path class="cls-4" d="M138.21,102h1.4v3.3l-.05,1.7a3.93,3.93,0,0,1,2.75-1.36c1.73,0,2.52,1.12,2.52,3.23v5.23h-1.4v-5c0-1.55-.47-2.21-1.56-2.21a3.16,3.16,0,0,0-2.26,1.27v6h-1.4Z"/><path class="cls-4" d="M146.85,110c0-2.7,1.82-4.35,3.7-4.35,2.11,0,3.3,1.51,3.3,3.87a4.68,4.68,0,0,1,0,.8h-5.57a2.74,2.74,0,0,0,2.75,2.88,3.78,3.78,0,0,0,2.06-.65l.49.92a4.91,4.91,0,0,1-2.72.85C148.6,114.31,146.85,112.69,146.85,110Zm5.78-.68c0-1.67-.75-2.57-2-2.57a2.55,2.55,0,0,0-2.38,2.57Z"/><path class="cls-4" d="M155.89,105.84h1.16l.12,1.5h.05a2.82,2.82,0,0,1,2.34-1.7,2.05,2.05,0,0,1,.89.17l-.27,1.22a2.48,2.48,0,0,0-.8-.13c-.7,0-1.53.51-2.09,1.9v5.3h-1.4Z"/><path class="cls-4" d="M160.87,112c0-1.8,1.55-2.7,5.07-3.09,0-1.06-.34-2.08-1.7-2.08a4.55,4.55,0,0,0-2.47.89l-.54-1a6.17,6.17,0,0,1,3.25-1.07c2,0,2.87,1.34,2.87,3.4v5.06h-1.16l-.11-1H166a4.43,4.43,0,0,1-2.73,1.19A2.25,2.25,0,0,1,160.87,112Zm5.07.12v-2.29c-2.75.34-3.71,1-3.71,2.07a1.29,1.29,0,0,0,1.47,1.33A3.39,3.39,0,0,0,165.94,112.08Z"/><path class="cls-4" d="M170,105.84h1.16l.12,1h.05a4.31,4.31,0,0,1,2.63-1.15c2.13,0,3.27,1.65,3.27,4.21,0,2.81-1.69,4.46-3.57,4.46a3.87,3.87,0,0,1-2.3-1l0,1.44v2.79H170Zm5.78,4c0-1.81-.61-3-2.17-3a3.46,3.46,0,0,0-2.21,1.12v4.34a3.23,3.23,0,0,0,2,.87C174.73,113.14,175.73,111.89,175.73,109.85Z"/><path class="cls-4" d="M178.49,117.49l.27-1.11a2.43,2.43,0,0,0,.63.12c.93,0,1.53-.75,1.87-1.77l.18-.61-3.31-8.28h1.44l1.69,4.58c.25.71.54,1.56.8,2.32h.06c.24-.74.48-1.59.7-2.32l1.48-4.58h1.36l-3.11,8.94c-.58,1.64-1.43,2.88-3.09,2.88A2.76,2.76,0,0,1,178.49,117.49Z"/><path class="cls-4" d="M186.07,116.18a2.26,2.26,0,0,0,1.53-2.08.5.5,0,0,1-.17,0,.93.93,0,0,1-1-1,1,1,0,0,1,1-1c.73,0,1.18.62,1.18,1.64a3.36,3.36,0,0,1-2.23,3.18Z"/><path class="cls-4" d="M194.3,105.84h1.15l.12,1h.05a4.33,4.33,0,0,1,2.64-1.15c2.12,0,3.26,1.65,3.26,4.21,0,2.81-1.68,4.46-3.57,4.46a3.85,3.85,0,0,1-2.29-1l0,1.44v2.79H194.3Zm5.78,4c0-1.81-.62-3-2.18-3a3.48,3.48,0,0,0-2.21,1.12v4.34a3.28,3.28,0,0,0,2,.87C199.07,113.14,200.08,111.89,200.08,109.85Z"/><path class="cls-4" d="M203.73,105.84h1.16l.12,1.5h.05a2.82,2.82,0,0,1,2.34-1.7,2.08,2.08,0,0,1,.89.17L208,107a2.38,2.38,0,0,0-.79-.13c-.7,0-1.53.51-2.1,1.9v5.3h-1.39Z"/><path class="cls-4" d="M209.41,103.23a.94.94,0,0,1,1.87,0,.94.94,0,0,1-1.87,0Zm.22,2.61H211v8.26h-1.39Z"/><path class="cls-4" d="M213.2,110c0-2.77,1.8-4.35,3.82-4.35s3.83,1.58,3.83,4.35-1.8,4.32-3.83,4.32S213.2,112.73,213.2,110Zm6.2,0c0-1.9-1-3.2-2.38-3.2s-2.38,1.3-2.38,3.2,1,3.16,2.38,3.16S219.4,111.88,219.4,110Z"/><path class="cls-4" d="M223,105.84h1.15l.12,1.5h0a2.82,2.82,0,0,1,2.35-1.7,2,2,0,0,1,.88.17l-.27,1.22a2.44,2.44,0,0,0-.8-.13c-.7,0-1.53.51-2.09,1.9v5.3H223Z"/><path class="cls-4" d="M232.46,103h3.18c2.5,0,4.18.84,4.18,3.28s-1.67,3.45-4.11,3.45h-1.84v4.42h-1.41Zm3.08,5.58c1.94,0,2.87-.72,2.87-2.3s-1-2.14-2.94-2.14h-1.6v4.44Z"/><path class="cls-4" d="M242.08,103h1.41V114.1h-1.41Z"/><path class="cls-4" d="M249.31,112c0-1.8,1.54-2.7,5.06-3.09,0-1.06-.34-2.08-1.7-2.08a4.48,4.48,0,0,0-2.46.89l-.55-1a6.17,6.17,0,0,1,3.25-1.07c2,0,2.87,1.34,2.87,3.4v5.06h-1.15l-.12-1h0a4.44,4.44,0,0,1-2.74,1.19A2.25,2.25,0,0,1,249.31,112Zm5.06.12v-2.29c-2.75.34-3.7,1-3.7,2.07a1.28,1.28,0,0,0,1.46,1.33A3.37,3.37,0,0,0,254.37,112.08Z"/><path class="cls-4" d="M258.39,105.84h1.15l.12,1.19h0a3.89,3.89,0,0,1,2.77-1.39c1.74,0,2.52,1.12,2.52,3.23v5.23h-1.4v-5c0-1.55-.47-2.21-1.56-2.21a3.16,3.16,0,0,0-2.26,1.27v6h-1.39Z"/><path class="cls-4" d="M267.09,110c0-2.69,1.7-4.35,3.59-4.35a3.42,3.42,0,0,1,2.31,1l-.07-1.41V102h1.41v12.1h-1.16l-.11-1H273a3.75,3.75,0,0,1-2.49,1.17C268.43,114.31,267.09,112.74,267.09,110Zm5.83,2v-4.32a2.89,2.89,0,0,0-2-.87c-1.32,0-2.38,1.28-2.38,3.16s.84,3.17,2.28,3.17A2.81,2.81,0,0,0,272.92,112Z"/><path class="cls-4" d="M280.3,103.23a.94.94,0,0,1,1.87,0,.94.94,0,0,1-1.87,0Zm.22,2.61h1.39v8.26h-1.39Z"/><path class="cls-4" d="M284.7,105.84h1.16L286,107h0a3.62,3.62,0,0,1,2.56-1.39,2.16,2.16,0,0,1,2.28,1.58,3.9,3.9,0,0,1,2.72-1.58c1.7,0,2.52,1.12,2.52,3.23v5.23h-1.4v-5c0-1.55-.49-2.21-1.53-2.21a3,3,0,0,0-2.07,1.27v6h-1.4v-5c0-1.55-.49-2.21-1.54-2.21a3.11,3.11,0,0,0-2.08,1.27v6H284.7Z"/><path class="cls-4" d="M298.79,105.84H300l.12,1.19h.05a3.62,3.62,0,0,1,2.57-1.39,2.16,2.16,0,0,1,2.27,1.58,3.9,3.9,0,0,1,2.72-1.58c1.7,0,2.52,1.12,2.52,3.23v5.23h-1.39v-5c0-1.55-.5-2.21-1.53-2.21a3,3,0,0,0-2.08,1.27v6h-1.39v-5c0-1.55-.5-2.21-1.55-2.21a3.08,3.08,0,0,0-2.07,1.27v6h-1.4Z"/><path class="cls-4" d="M312.77,111.08v-5.24h1.41v5c0,1.55.46,2.21,1.54,2.21.85,0,1.45-.42,2.23-1.39v-5.87h1.4v8.26h-1.16l-.12-1.29H318a3.51,3.51,0,0,1-2.72,1.5C313.55,114.31,312.77,113.19,312.77,111.08Z"/><path class="cls-4" d="M322.13,105.84h1.16l.12,1.19h0a3.89,3.89,0,0,1,2.77-1.39c1.73,0,2.52,1.12,2.52,3.23v5.23h-1.4v-5c0-1.55-.47-2.21-1.56-2.21a3.16,3.16,0,0,0-2.26,1.27v6h-1.4Z"/><path class="cls-4" d="M330.82,110c0-2.77,1.8-4.35,3.83-4.35s3.82,1.58,3.82,4.35-1.8,4.32-3.82,4.32S330.82,112.73,330.82,110Zm6.21,0c0-1.9-1-3.2-2.38-3.2s-2.38,1.3-2.38,3.2,1,3.16,2.38,3.16S337,111.88,337,110Z"/><path class="cls-4" d="M340.65,105.84h1.15l.12,1.19H342a3.64,3.64,0,0,1,2.57-1.39,2.16,2.16,0,0,1,2.28,1.58,3.86,3.86,0,0,1,2.72-1.58c1.7,0,2.51,1.12,2.51,3.23v5.23h-1.39v-5c0-1.55-.49-2.21-1.53-2.21a3,3,0,0,0-2.07,1.27v6h-1.4v-5c0-1.55-.49-2.21-1.55-2.21a3.1,3.1,0,0,0-2.07,1.27v6h-1.39Z"/><path class="cls-4" d="M354.13,110c0-2.77,1.8-4.35,3.82-4.35s3.83,1.58,3.83,4.35-1.8,4.32-3.83,4.32S354.13,112.73,354.13,110Zm6.2,0c0-1.9-.95-3.2-2.38-3.2s-2.38,1.3-2.38,3.2,1,3.16,2.38,3.16S360.33,111.88,360.33,110Z"/><path class="cls-4" d="M363.36,110c0-2.69,1.7-4.35,3.59-4.35a3.42,3.42,0,0,1,2.31,1l-.07-1.41V102h1.41v12.1h-1.16l-.12-1h-.05a3.75,3.75,0,0,1-2.49,1.17C364.7,114.31,363.36,112.74,363.36,110Zm5.83,2v-4.32a2.89,2.89,0,0,0-2-.87c-1.32,0-2.38,1.28-2.38,3.16s.84,3.17,2.28,3.17A2.81,2.81,0,0,0,369.19,112Z"/><path class="cls-4" d="M373.27,111.08v-5.24h1.41v5c0,1.55.46,2.21,1.55,2.21.85,0,1.44-.42,2.22-1.39v-5.87h1.4v8.26h-1.16l-.12-1.29h-.05a3.49,3.49,0,0,1-2.72,1.5C374.05,114.31,373.27,113.19,373.27,111.08Z"/><path class="cls-4" d="M382.64,112.44V102H384v10.54c0,.44.19.61.39.61a1.36,1.36,0,0,0,.31,0l.18,1a1.74,1.74,0,0,1-.79.14C383.06,114.31,382.64,113.65,382.64,112.44Z"/><path class="cls-4" d="M386.46,112c0-1.8,1.55-2.7,5.07-3.09,0-1.06-.34-2.08-1.7-2.08a4.55,4.55,0,0,0-2.47.89l-.54-1a6.14,6.14,0,0,1,3.25-1.07c2,0,2.87,1.34,2.87,3.4v5.06h-1.16l-.12-1h-.05a4.43,4.43,0,0,1-2.73,1.19A2.25,2.25,0,0,1,386.46,112Zm5.07.12v-2.29c-2.76.34-3.71,1-3.71,2.07a1.29,1.29,0,0,0,1.46,1.33A3.39,3.39,0,0,0,391.53,112.08Z"/><path class="cls-4" d="M395.54,111.55V107h-1.22v-1l1.29-.09.17-2.31H397v2.31h2.23V107H397v4.59c0,1,.32,1.6,1.27,1.6a3.07,3.07,0,0,0,.94-.22l.27,1a5.21,5.21,0,0,1-1.53.31C396.13,114.31,395.54,113.19,395.54,111.55Z"/><path class="cls-4" d="M400.2,110c0-2.77,1.8-4.35,3.82-4.35s3.83,1.58,3.83,4.35-1.81,4.32-3.83,4.32S400.2,112.73,400.2,110Zm6.2,0c0-1.9-.95-3.2-2.38-3.2s-2.38,1.3-2.38,3.2,1,3.16,2.38,3.16S406.4,111.88,406.4,110Z"/><path class="cls-4" d="M410,105.84h1.16l.12,1.5h.05a2.82,2.82,0,0,1,2.34-1.7,2.05,2.05,0,0,1,.89.17l-.27,1.22a2.48,2.48,0,0,0-.8-.13c-.7,0-1.53.51-2.09,1.9v5.3H410Z"/><path class="cls-4" d="M415.51,117.49l.28-1.11a2.43,2.43,0,0,0,.63.12c.93,0,1.52-.75,1.86-1.77l.19-.61-3.31-8.28h1.44l1.68,4.58c.26.71.55,1.56.8,2.32h.07c.24-.74.48-1.59.7-2.32l1.48-4.58h1.36l-3.11,8.94c-.58,1.64-1.43,2.88-3.1,2.88A2.85,2.85,0,0,1,415.51,117.49Z"/><path class="cls-4" d="M16.63,130.55V126H15.41v-1l1.29-.09.17-2.31H18v2.31h2.23V126H18v4.59c0,1,.33,1.6,1.28,1.6a3,3,0,0,0,.93-.22l.27,1.05a5.14,5.14,0,0,1-1.53.31C17.23,133.31,16.63,132.19,16.63,130.55Z"/><path class="cls-4" d="M22.14,121h1.39v3.3l-.05,1.7a4,4,0,0,1,2.76-1.36c1.73,0,2.51,1.12,2.51,3.23v5.23H27.36v-5c0-1.55-.48-2.21-1.57-2.21-.85,0-1.42.44-2.26,1.27v6H22.14Z"/><path class="cls-4" d="M30.78,129c0-2.7,1.81-4.35,3.7-4.35,2.11,0,3.3,1.51,3.3,3.87a6,6,0,0,1-.05.8H32.15a2.75,2.75,0,0,0,2.76,2.88,3.72,3.72,0,0,0,2.05-.65l.5.92a4.93,4.93,0,0,1-2.72.85C32.53,133.31,30.78,131.69,30.78,129Zm5.78-.68c0-1.67-.75-2.57-2-2.57a2.55,2.55,0,0,0-2.38,2.57Z"/><path class="cls-4" d="M39.82,124.84H41l.11,1.5h.06a2.82,2.82,0,0,1,2.34-1.7,2.08,2.08,0,0,1,.89.17L44.1,126a2.44,2.44,0,0,0-.8-.13c-.69,0-1.53.51-2.09,1.9v5.3H39.82Z"/><path class="cls-4" d="M44.8,131c0-1.8,1.55-2.7,5.07-3.09,0-1.06-.34-2.08-1.7-2.08a4.52,4.52,0,0,0-2.47.89l-.54-1a6.14,6.14,0,0,1,3.24-1.07c2,0,2.88,1.34,2.88,3.4v5.06H50.12l-.12-1h0a4.44,4.44,0,0,1-2.74,1.19A2.25,2.25,0,0,1,44.8,131Zm5.07.12v-2.29c-2.76.34-3.71,1-3.71,2.07a1.29,1.29,0,0,0,1.46,1.33A3.39,3.39,0,0,0,49.87,131.08Z"/><path class="cls-4" d="M53.88,124.84H55l.12,1h.05a4.33,4.33,0,0,1,2.64-1.15c2.12,0,3.26,1.65,3.26,4.21,0,2.81-1.68,4.46-3.57,4.46a3.85,3.85,0,0,1-2.29-.95l0,1.44v2.79H53.88Zm5.78,4c0-1.81-.61-3-2.18-3a3.51,3.51,0,0,0-2.21,1.12v4.34a3.28,3.28,0,0,0,2,.87C58.66,132.14,59.66,130.89,59.66,128.85Z"/><path class="cls-4" d="M62.41,136.49l.28-1.11a2.35,2.35,0,0,0,.62.12c.94,0,1.53-.75,1.87-1.77l.19-.61-3.31-8.28H63.5l1.68,4.58c.26.71.55,1.56.8,2.32h.07c.24-.74.48-1.59.7-2.32l1.48-4.58h1.36l-3.11,8.94c-.58,1.64-1.43,2.88-3.1,2.88A2.85,2.85,0,0,1,62.41,136.49Z"/><path class="cls-4" d="M16.53,147h1.7l2.14,6c.27.77.53,1.57.8,2.33h.07c.27-.76.49-1.56.76-2.33l2.11-6h1.72V158.1H24.5V152c0-1,.12-2.31.19-3.3h-.07l-.88,2.53L21.63,157h-.94l-2.1-5.78-.89-2.53h-.07c.07,1,.17,2.31.17,3.3v6.13H16.53Z"/><path class="cls-4" d="M28.14,154c0-2.7,1.82-4.35,3.71-4.35,2.1,0,3.29,1.51,3.29,3.87a4.68,4.68,0,0,1,0,.8H29.52a2.74,2.74,0,0,0,2.75,2.88,3.75,3.75,0,0,0,2.06-.65l.49.92a4.91,4.91,0,0,1-2.72.85C29.89,158.31,28.14,156.69,28.14,154Zm5.78-.68c0-1.67-.75-2.57-2-2.57a2.55,2.55,0,0,0-2.38,2.57Z"/><path class="cls-4" d="M36.44,156c0-1.8,1.54-2.7,5.06-3.09,0-1.06-.34-2.08-1.7-2.08a4.48,4.48,0,0,0-2.46.89l-.55-1A6.17,6.17,0,0,1,40,149.64c2,0,2.87,1.34,2.87,3.4v5.06H41.76l-.12-1h0a4.44,4.44,0,0,1-2.74,1.19A2.25,2.25,0,0,1,36.44,156Zm5.06.12v-2.29c-2.75.34-3.7,1-3.7,2.07a1.28,1.28,0,0,0,1.46,1.33A3.37,3.37,0,0,0,41.5,156.08Z"/><path class="cls-4" d="M44.6,157.17l.69-.94a3.73,3.73,0,0,0,2.43,1c1.09,0,1.64-.58,1.64-1.29s-1-1.23-1.89-1.57c-1.17-.42-2.41-1-2.41-2.38s1-2.34,2.85-2.34a4.22,4.22,0,0,1,2.57.93l-.68.89a3,3,0,0,0-1.89-.73c-1,0-1.51.56-1.51,1.19,0,.78.85,1.07,1.78,1.42,1.19.45,2.52.94,2.52,2.5,0,1.35-1.07,2.47-3,2.47A5,5,0,0,1,44.6,157.17Z"/><path class="cls-4" d="M52.52,155.08v-5.24h1.41v5c0,1.55.46,2.21,1.55,2.21.85,0,1.44-.42,2.22-1.39v-5.87h1.4v8.26H57.94l-.12-1.29h0a3.49,3.49,0,0,1-2.72,1.5C53.3,158.31,52.52,157.19,52.52,155.08Z"/><path class="cls-4" d="M61.89,149.84H63l.12,1.5h.05a2.82,2.82,0,0,1,2.35-1.7,2,2,0,0,1,.88.17L66.17,151a2.44,2.44,0,0,0-.8-.13c-.7,0-1.53.51-2.09,1.9v5.3H61.89Z"/><path class="cls-4" d="M66.87,156c0-1.8,1.54-2.7,5.06-3.09,0-1.06-.34-2.08-1.7-2.08a4.48,4.48,0,0,0-2.46.89l-.55-1a6.17,6.17,0,0,1,3.25-1.07c2,0,2.87,1.34,2.87,3.4v5.06H72.19l-.12-1h0a4.44,4.44,0,0,1-2.74,1.19A2.25,2.25,0,0,1,66.87,156Zm5.06.12v-2.29c-2.75.34-3.7,1-3.7,2.07a1.28,1.28,0,0,0,1.46,1.33A3.37,3.37,0,0,0,71.93,156.08Z"/><path class="cls-4" d="M77.24,157.25h0l-.12.85H75.94V146h1.4v3.3l0,1.49a4.1,4.1,0,0,1,2.59-1.15c2.14,0,3.28,1.65,3.28,4.2,0,2.82-1.68,4.47-3.57,4.47A3.66,3.66,0,0,1,77.24,157.25Zm4.48-3.4c0-1.81-.61-3-2.17-3a3.4,3.4,0,0,0-2.21,1.12v4.34a3.23,3.23,0,0,0,2,.87C80.72,157.14,81.72,155.89,81.72,153.85Z"/><path class="cls-4" d="M85.35,156.44V146h1.39v10.54c0,.44.19.61.39.61a1.36,1.36,0,0,0,.31,0l.18,1a1.76,1.76,0,0,1-.8.14C85.77,158.31,85.35,157.65,85.35,156.44Z"/><path class="cls-4" d="M89.07,154c0-2.7,1.82-4.35,3.7-4.35,2.11,0,3.3,1.51,3.3,3.87a6,6,0,0,1,0,.8H90.45a2.74,2.74,0,0,0,2.75,2.88,3.78,3.78,0,0,0,2.06-.65l.49.92a4.91,4.91,0,0,1-2.72.85C90.82,158.31,89.07,156.69,89.07,154Zm5.78-.68c0-1.67-.75-2.57-2-2.57a2.55,2.55,0,0,0-2.38,2.57Z"/><path class="cls-4" d="M100.92,154c0-2.69,1.7-4.35,3.58-4.35a3.45,3.45,0,0,1,2.32,1l-.07-1.41V146h1.41v12.1H107l-.12-1h0a3.75,3.75,0,0,1-2.5,1.17C102.26,158.31,100.92,156.74,100.92,154Zm5.83,2v-4.32a2.89,2.89,0,0,0-2-.87c-1.32,0-2.38,1.28-2.38,3.16s.83,3.17,2.28,3.17A2.83,2.83,0,0,0,106.75,156Z"/><path class="cls-4" d="M110.73,147.23a.94.94,0,0,1,1.87,0,.94.94,0,0,1-1.87,0Zm.22,2.61h1.39v8.26H111Z"/><path class="cls-4" d="M114.21,157.17l.7-.94a3.69,3.69,0,0,0,2.43,1c1.09,0,1.63-.58,1.63-1.29s-1-1.23-1.89-1.57c-1.17-.42-2.41-1-2.41-2.38s1-2.34,2.86-2.34a4.16,4.16,0,0,1,2.56.93l-.68.89a3,3,0,0,0-1.88-.73c-1,0-1.52.56-1.52,1.19,0,.78.85,1.07,1.79,1.42,1.19.45,2.51.94,2.51,2.5,0,1.35-1.07,2.47-3,2.47A5,5,0,0,1,114.21,157.17Z"/><path class="cls-4" d="M121.64,154c0-2.7,1.82-4.35,3.71-4.35,2.1,0,3.29,1.51,3.29,3.87a4.68,4.68,0,0,1,0,.8H123a2.74,2.74,0,0,0,2.75,2.88,3.75,3.75,0,0,0,2.06-.65l.49.92a4.91,4.91,0,0,1-2.72.85C123.39,158.31,121.64,156.69,121.64,154Zm5.78-.68c0-1.67-.75-2.57-2-2.57a2.55,2.55,0,0,0-2.38,2.57Z"/><path class="cls-4" d="M129.94,156c0-1.8,1.54-2.7,5.06-3.09,0-1.06-.34-2.08-1.7-2.08a4.48,4.48,0,0,0-2.46.89l-.55-1a6.17,6.17,0,0,1,3.25-1.07c2,0,2.87,1.34,2.87,3.4v5.06h-1.15l-.12-1h0a4.46,4.46,0,0,1-2.74,1.19A2.25,2.25,0,0,1,129.94,156Zm5.06.12v-2.29c-2.75.34-3.7,1-3.7,2.07a1.28,1.28,0,0,0,1.46,1.33A3.37,3.37,0,0,0,135,156.08Z"/><path class="cls-4" d="M138.1,157.17l.69-.94a3.73,3.73,0,0,0,2.43,1c1.09,0,1.63-.58,1.63-1.29s-1-1.23-1.88-1.57c-1.17-.42-2.42-1-2.42-2.38s1.06-2.34,2.86-2.34a4.22,4.22,0,0,1,2.57.93l-.68.89a3,3,0,0,0-1.89-.73c-1,0-1.51.56-1.51,1.19,0,.78.85,1.07,1.78,1.42,1.19.45,2.52.94,2.52,2.5,0,1.35-1.07,2.47-3,2.47A5,5,0,0,1,138.1,157.17Z"/><path class="cls-4" d="M145.52,154c0-2.7,1.82-4.35,3.71-4.35,2.11,0,3.3,1.51,3.3,3.87a6,6,0,0,1-.05.8H146.9a2.75,2.75,0,0,0,2.76,2.88,3.72,3.72,0,0,0,2.05-.65l.5.92a4.93,4.93,0,0,1-2.72.85C147.28,158.31,145.52,156.69,145.52,154Zm5.78-.68c0-1.67-.74-2.57-2-2.57a2.56,2.56,0,0,0-2.38,2.57Z"/><path class="cls-4" d="M16.53,172H23v1.19h-5v3.5h4.23v1.21H17.94v4.05h5.18v1.2H16.53Z"/><path class="cls-4" d="M24.84,177.53c0-3.59,2.11-5.78,4.95-5.78a4.08,4.08,0,0,1,3.06,1.38l-.77.91a3.05,3.05,0,0,0-2.27-1c-2.11,0-3.51,1.73-3.51,4.5s1.35,4.58,3.46,4.58a3.38,3.38,0,0,0,2.58-1.26l.78.88a4.31,4.31,0,0,1-3.42,1.62C26.92,183.31,24.84,181.17,24.84,177.53Z"/><path class="cls-4" d="M34.06,177.48c0-3.57,1.95-5.73,4.76-5.73s4.77,2.17,4.77,5.73-2,5.83-4.77,5.83S34.06,181.06,34.06,177.48Zm8,0c0-2.77-1.3-4.49-3.29-4.49s-3.3,1.72-3.3,4.49,1.31,4.59,3.3,4.59S42.11,180.27,42.11,177.48Z"/><path class="cls-4" d="M45.34,177.53c0-3.59,2.16-5.78,5.12-5.78a4.26,4.26,0,0,1,3.21,1.38l-.78.91a3.16,3.16,0,0,0-2.39-1c-2.25,0-3.69,1.73-3.69,4.5s1.32,4.58,3.7,4.58a3.05,3.05,0,0,0,2-.67v-2.9H50.16v-1.18h3.65V182a4.77,4.77,0,0,1-3.43,1.29C47.44,183.31,45.34,181.17,45.34,177.53Z"/><path class="cls-4" d="M59.88,172h3.18c2.5,0,4.18.84,4.18,3.28s-1.67,3.45-4.11,3.45H61.29v4.42H59.88ZM63,177.53c1.93,0,2.87-.72,2.87-2.3s-1-2.14-2.94-2.14h-1.6v4.44Z"/><path class="cls-4" d="M68.52,181.66l.85-1a4.32,4.32,0,0,0,3.07,1.4c1.46,0,2.33-.73,2.33-1.82s-.8-1.5-1.85-2l-1.6-.7a3.13,3.13,0,0,1-2.26-2.87c0-1.7,1.48-3,3.5-3a4.61,4.61,0,0,1,3.3,1.38l-.77.91a3.57,3.57,0,0,0-2.53-1c-1.24,0-2.07.63-2.07,1.63s1,1.48,1.85,1.85l1.58.68c1.29.57,2.3,1.33,2.3,3s-1.45,3.18-3.79,3.18A5.39,5.39,0,0,1,68.52,181.66Z"/><path class="cls-4" d="M81,177.65c0-3.64,1.31-5.59,3.48-5.59S88,174,88,177.65s-1.31,5.66-3.47,5.66S81,181.29,81,177.65Zm5.59,0c0-3.18-.85-4.47-2.11-4.47s-2.12,1.29-2.12,4.47.85,4.54,2.12,4.54S86.62,180.83,86.62,177.65Z"/><path class="cls-4" d="M92.91,179c0-2.77,1.8-4.35,3.82-4.35s3.83,1.58,3.83,4.35-1.8,4.32-3.83,4.32S92.91,181.73,92.91,179Zm6.2,0c0-1.9-1-3.2-2.38-3.2s-2.38,1.3-2.38,3.2,1,3.16,2.38,3.16S99.11,180.88,99.11,179Z"/><path class="cls-4" d="M102.74,174.84h1.15l.12,1.5h0a2.82,2.82,0,0,1,2.35-1.7,2,2,0,0,1,.88.17L107,176a2.44,2.44,0,0,0-.8-.13c-.7,0-1.53.51-2.09,1.9v5.3h-1.39Z"/><path class="cls-4" d="M112,182h2.49v-8h-2v-.9a6.43,6.43,0,0,0,2.3-.8h1.07V182h2.24v1.15H112Z"/><path class="cls-4" d="M994.53,78H1001v1.19h-5v3.78h4.25v1.19h-4.25v5h-1.41Z"/><path class="cls-4" d="M1001.94,85c0-2.77,1.8-4.35,3.83-4.35s3.82,1.58,3.82,4.35-1.8,4.32-3.82,4.32S1001.94,87.73,1001.94,85Zm6.21,0c0-1.9-1-3.2-2.38-3.2s-2.38,1.3-2.38,3.2,1,3.16,2.38,3.16S1008.15,86.88,1008.15,85Z"/><path class="cls-4" d="M1011.77,87.44V77h1.39V87.54c0,.44.19.61.39.61a1.32,1.32,0,0,0,.31,0l.19,1a1.82,1.82,0,0,1-.8.14C1012.19,89.31,1011.77,88.65,1011.77,87.44Z"/><path class="cls-4" d="M1016.1,87.44V77h1.4V87.54c0,.44.18.61.39.61a1.29,1.29,0,0,0,.3,0l.19,1a1.79,1.79,0,0,1-.8.14C1016.53,89.31,1016.1,88.65,1016.1,87.44Z"/><path class="cls-4" d="M1019.83,85c0-2.77,1.8-4.35,3.82-4.35s3.82,1.58,3.82,4.35-1.8,4.32-3.82,4.32S1019.83,87.73,1019.83,85Zm6.2,0c0-1.9-1-3.2-2.38-3.2s-2.38,1.3-2.38,3.2,1,3.16,2.38,3.16S1026,86.88,1026,85Z"/><path class="cls-4" d="M1028.6,80.84H1030l1.22,4.78c.19.78.34,1.53.49,2.29h.07c.19-.76.36-1.53.56-2.29l1.28-4.78H1035l1.29,4.78.58,2.29h.06c.19-.76.34-1.51.51-2.29l1.21-4.78H1040l-2.21,8.26h-1.7l-1.19-4.43c-.21-.78-.36-1.55-.56-2.38h-.07c-.19.83-.36,1.61-.58,2.39l-1.16,4.42h-1.63Z"/><path class="cls-4" d="M1041.09,84.31H1045v1.07h-3.91Z"/><path class="cls-4" d="M1047,86.08V80.84h1.41v5c0,1.55.46,2.21,1.54,2.21.85,0,1.45-.42,2.23-1.39V80.84h1.4V89.1h-1.16l-.12-1.29h0a3.51,3.51,0,0,1-2.72,1.5C1047.74,89.31,1047,88.19,1047,86.08Z"/><path class="cls-4" d="M1056.32,80.84h1.16l.12,1h.05a4.33,4.33,0,0,1,2.64-1.15c2.12,0,3.26,1.65,3.26,4.21,0,2.81-1.68,4.46-3.57,4.46a3.87,3.87,0,0,1-2.3-1l0,1.44v2.79h-1.4Zm5.78,4c0-1.81-.61-3-2.17-3a3.46,3.46,0,0,0-2.21,1.12v4.34a3.28,3.28,0,0,0,2,.87C1061.1,88.14,1062.1,86.89,1062.1,84.85Z"/><path class="cls-4" d="M1069.4,82h-1.12v-1l1.12-.09V79.53c0-1.68.76-2.73,2.41-2.73a3.85,3.85,0,0,1,1.38.27l-.31,1.07a2.23,2.23,0,0,0-.93-.2c-.78,0-1.16.54-1.16,1.59v1.31h1.75V82h-1.75V89.1h-1.39Z"/><path class="cls-4" d="M1073.34,85c0-2.77,1.8-4.35,3.83-4.35S1081,82.22,1081,85s-1.8,4.32-3.82,4.32S1073.34,87.73,1073.34,85Zm6.2,0c0-1.9-1-3.2-2.37-3.2s-2.38,1.3-2.38,3.2,1,3.16,2.38,3.16S1079.54,86.88,1079.54,85Z"/><path class="cls-4" d="M1083.17,80.84h1.15l.12,1.5h0a2.82,2.82,0,0,1,2.35-1.7,2,2,0,0,1,.88.17l-.27,1.22a2.44,2.44,0,0,0-.8-.13c-.69,0-1.53.51-2.09,1.9v5.3h-1.39Z"/><path class="cls-4" d="M1091.89,84.09c0-4.35,2-6,4.13-6a3.45,3.45,0,0,1,2.62,1.15l-.79.87a2.34,2.34,0,0,0-1.78-.85c-1.51,0-2.79,1.17-2.86,4.6a3.48,3.48,0,0,1,2.54-1.36c1.87,0,3.09,1.13,3.09,3.35a3.28,3.28,0,0,1-3.21,3.49C1093.5,89.31,1091.89,87.57,1091.89,84.09Zm1.36.87c.17,2.1,1,3.24,2.38,3.24,1.07,0,1.88-1,1.88-2.38s-.66-2.29-2-2.29A2.87,2.87,0,0,0,1093.25,85Z"/><path class="cls-4" d="M1100.27,83.65c0-3.64,1.31-5.59,3.48-5.59s3.47,2,3.47,5.59-1.31,5.66-3.47,5.66S1100.27,87.29,1100.27,83.65Zm5.59,0c0-3.18-.85-4.47-2.11-4.47s-2.12,1.29-2.12,4.47.85,4.54,2.12,4.54S1105.86,86.83,1105.86,83.65Z"/><path class="cls-4" d="M1112.76,80.84h1.16L1114,82h0a3.62,3.62,0,0,1,2.57-1.39,2.16,2.16,0,0,1,2.27,1.58,3.9,3.9,0,0,1,2.72-1.58c1.7,0,2.52,1.12,2.52,3.23V89.1h-1.39v-5c0-1.55-.5-2.21-1.53-2.21a3,3,0,0,0-2.08,1.27v6h-1.39v-5c0-1.55-.49-2.21-1.55-2.21a3.08,3.08,0,0,0-2.07,1.27v6h-1.4Z"/><path class="cls-4" d="M1126.24,85c0-2.77,1.81-4.35,3.83-4.35s3.82,1.58,3.82,4.35-1.8,4.32-3.82,4.32S1126.24,87.73,1126.24,85Zm6.21,0c0-1.9-1-3.2-2.38-3.2s-2.38,1.3-2.38,3.2,1,3.16,2.38,3.16S1132.45,86.88,1132.45,85Z"/><path class="cls-4" d="M1136.07,80.84h1.16l.11,1.19h.06a3.89,3.89,0,0,1,2.77-1.39c1.73,0,2.51,1.12,2.51,3.23V89.1h-1.39v-5c0-1.55-.48-2.21-1.57-2.21-.84,0-1.42.44-2.26,1.27v6h-1.39Z"/><path class="cls-4" d="M1145.61,86.55V82h-1.23v-1l1.29-.09.17-2.31H1147v2.31h2.22V82H1147v4.59c0,1,.32,1.6,1.27,1.6a3.07,3.07,0,0,0,.94-.22l.27,1a5.21,5.21,0,0,1-1.53.31C1146.2,89.31,1145.61,88.19,1145.61,86.55Z"/><path class="cls-4" d="M1151.12,77h1.39v3.3l0,1.7a3.93,3.93,0,0,1,2.75-1.36c1.74,0,2.52,1.12,2.52,3.23V89.1h-1.4v-5c0-1.55-.47-2.21-1.56-2.21a3.16,3.16,0,0,0-2.26,1.27v6h-1.39Z"/><path class="cls-4" d="M1159.45,88.17l.69-.94a3.73,3.73,0,0,0,2.43,1c1.09,0,1.63-.58,1.63-1.29s-1-1.23-1.88-1.57c-1.18-.42-2.42-1-2.42-2.38s1.06-2.34,2.86-2.34a4.22,4.22,0,0,1,2.57.93l-.68.89a3,3,0,0,0-1.89-.73c-1,0-1.51.56-1.51,1.19,0,.78.85,1.07,1.78,1.42,1.19.45,2.52.94,2.52,2.5,0,1.35-1.07,2.47-3,2.47A5,5,0,0,1,1159.45,88.17Z"/><path class="cls-4" d="M1167.2,88.25a1,1,0,1,1,1,1.06A1,1,0,0,1,1167.2,88.25Z"/><path class="cls-4" d="M845.72,88.25h-.05l-.12.85h-1.14V77h1.42v3.3l0,1.49a4.18,4.18,0,0,1,2.62-1.15c2.18,0,3.33,1.65,3.33,4.2,0,2.82-1.7,4.47-3.62,4.47A3.77,3.77,0,0,1,845.72,88.25Zm4.56-3.4c0-1.81-.62-3-2.21-3a3.46,3.46,0,0,0-2.24,1.12v4.34a3.3,3.3,0,0,0,2,.87C849.26,88.14,850.28,86.89,850.28,84.85Z"/><path class="cls-4" d="M855.26,88.25h0l-.13.85H854V77h1.41v3.3l0,1.49A4.16,4.16,0,0,1,858,80.64c2.17,0,3.32,1.65,3.32,4.2,0,2.82-1.7,4.47-3.62,4.47A3.75,3.75,0,0,1,855.26,88.25Zm4.55-3.4c0-1.81-.62-3-2.21-3a3.46,3.46,0,0,0-2.24,1.12v4.34a3.3,3.3,0,0,0,2,.87C858.79,88.14,859.81,86.89,859.81,84.85Z"/><path class="cls-4" d="M862.75,88.27c3.31-3.25,5.18-5.2,5.18-7a1.94,1.94,0,0,0-2.09-2.13,3.24,3.24,0,0,0-2.34,1.31l-.81-.8A4.33,4.33,0,0,1,866,78.06a3,3,0,0,1,3.3,3.19c0,2-1.88,4.06-4.49,6.75.61,0,1.28-.1,1.85-.1h3.19v1.2h-7.11Z"/><path class="cls-4" d="M872,88h2.52V80h-2v-.9a6.6,6.6,0,0,0,2.33-.8h1.08V88h2.28V89.1H872Z"/><path class="cls-4" d="M879.89,88.27c3.31-3.25,5.17-5.2,5.17-7A1.94,1.94,0,0,0,883,79.19a3.26,3.26,0,0,0-2.34,1.31l-.81-.8a4.33,4.33,0,0,1,3.33-1.64,3,3,0,0,1,3.29,3.19c0,2-1.88,4.06-4.48,6.75.6,0,1.27-.1,1.84-.1H887v1.2h-7.1Z"/><path class="cls-4" d="M889.13,88h2.51V80h-2v-.9a6.53,6.53,0,0,0,2.33-.8h1.09V88h2.27V89.1h-6.2Z"/><path class="cls-4" d="M902.57,79.47h-5.48V78.26h7.09v.87c-2.61,3.28-3.14,5.74-3.33,10h-1.47A15.8,15.8,0,0,1,902.57,79.47Z"/><path class="cls-4" d="M843.9,106c0-1.8,1.57-2.7,5.14-3.09,0-1.06-.35-2.08-1.73-2.08a4.62,4.62,0,0,0-2.5.89l-.55-1a6.29,6.29,0,0,1,3.29-1.07c2.05,0,2.92,1.34,2.92,3.4v5.06h-1.18l-.12-1h0a4.52,4.52,0,0,1-2.78,1.19A2.26,2.26,0,0,1,843.9,106Zm5.14.12v-2.29c-2.8.34-3.76,1-3.76,2.07s.65,1.33,1.48,1.33A3.47,3.47,0,0,0,849,106.08Z"/><path class="cls-4" d="M852.5,104c0-2.69,1.72-4.35,3.64-4.35a3.5,3.5,0,0,1,2.34,1l-.07-1.41V96h1.43v12.1h-1.17l-.12-1h0a3.85,3.85,0,0,1-2.54,1.17C853.86,108.31,852.5,106.74,852.5,104Zm5.91,2v-4.32a2.91,2.91,0,0,0-2-.87c-1.35,0-2.42,1.28-2.42,3.16s.85,3.17,2.31,3.17A2.86,2.86,0,0,0,858.41,106Z"/><path class="cls-4" d="M862.67,99.84h1.17L864,101h0a3.72,3.72,0,0,1,2.61-1.39,2.2,2.2,0,0,1,2.31,1.58,4,4,0,0,1,2.76-1.58c1.72,0,2.55,1.12,2.55,3.23v5.23h-1.42v-5c0-1.55-.5-2.21-1.55-2.21a3.07,3.07,0,0,0-2.1,1.27v6h-1.42v-5c0-1.55-.5-2.21-1.56-2.21a3.14,3.14,0,0,0-2.11,1.27v6h-1.41Z"/><path class="cls-4" d="M876.73,97.23a1,1,0,0,1,1.9,0,1,1,0,0,1-1.9,0Zm.23,2.61h1.41v8.26H877Z"/><path class="cls-4" d="M881.2,99.84h1.17l.12,1.19h0a4,4,0,0,1,2.81-1.39c1.76,0,2.55,1.12,2.55,3.23v5.23h-1.41v-5c0-1.55-.48-2.21-1.59-2.21a3.23,3.23,0,0,0-2.29,1.27v6H881.2Z"/><path class="cls-4" d="M890.4,97.23a1,1,0,0,1,1.9,0,1,1,0,0,1-1.9,0Zm.23,2.61H892v8.26h-1.41Z"/><path class="cls-4" d="M893.93,107.17l.71-.94a3.81,3.81,0,0,0,2.47,1c1.1,0,1.65-.58,1.65-1.29s-1-1.23-1.91-1.57c-1.19-.42-2.45-1-2.45-2.38s1.07-2.34,2.9-2.34a4.28,4.28,0,0,1,2.6.93l-.69.89a3.1,3.1,0,0,0-1.91-.73c-1,0-1.54.56-1.54,1.19,0,.78.86,1.07,1.81,1.42,1.21.45,2.55.94,2.55,2.5,0,1.35-1.08,2.47-3.06,2.47A5.17,5.17,0,0,1,893.93,107.17Z"/><path class="cls-4" d="M902,105.55V101h-1.24v-1l1.31-.09.18-2.31h1.19v2.31h2.25V101h-2.25v4.59c0,1,.32,1.6,1.29,1.6a3.2,3.2,0,0,0,.95-.22l.27,1a5.27,5.27,0,0,1-1.55.31C902.59,108.31,902,107.19,902,105.55Z"/><path class="cls-4" d="M907.57,99.84h1.17l.12,1.5h0a2.86,2.86,0,0,1,2.38-1.7,2.1,2.1,0,0,1,.9.17l-.28,1.22a2.46,2.46,0,0,0-.81-.13c-.7,0-1.55.51-2.12,1.9v5.3h-1.41Z"/><path class="cls-4" d="M912.62,106c0-1.8,1.57-2.7,5.14-3.09,0-1.06-.35-2.08-1.73-2.08a4.65,4.65,0,0,0-2.5.89l-.55-1a6.33,6.33,0,0,1,3.3-1.07c2.05,0,2.91,1.34,2.91,3.4v5.06H918l-.12-1h-.06a4.52,4.52,0,0,1-2.77,1.19A2.27,2.27,0,0,1,912.62,106Zm5.14.12v-2.29c-2.8.34-3.76,1-3.76,2.07s.66,1.33,1.48,1.33A3.45,3.45,0,0,0,917.76,106.08Z"/><path class="cls-4" d="M921.83,105.55V101h-1.25v-1l1.31-.09.18-2.31h1.19v2.31h2.25V101h-2.25v4.59c0,1,.32,1.6,1.29,1.6a3.2,3.2,0,0,0,1-.22l.27,1a5.27,5.27,0,0,1-1.55.31C922.43,108.31,921.83,107.19,921.83,105.55Z"/><path class="cls-4" d="M927.19,97.23a.95.95,0,0,1,1.89,0,.95.95,0,0,1-1.89,0Zm.22,2.61h1.41v8.26h-1.41Z"/><path class="cls-4" d="M931,104c0-2.77,1.83-4.35,3.88-4.35s3.88,1.58,3.88,4.35-1.83,4.32-3.88,4.32S931,106.73,931,104Zm6.29,0c0-1.9-1-3.2-2.41-3.2s-2.41,1.3-2.41,3.2,1,3.16,2.41,3.16S937.32,105.88,937.32,104Z"/><path class="cls-4" d="M941,99.84h1.18l.12,1.19h.05a4,4,0,0,1,2.81-1.39c1.76,0,2.55,1.12,2.55,3.23v5.23h-1.41v-5c0-1.55-.49-2.21-1.59-2.21a3.21,3.21,0,0,0-2.29,1.27v6H941Z"/><rect class="cls-2" x="494.47" y="61.31" width="319.53" height="101.69"/><path class="cls-4" d="M511.72,88.25h-.05l-.12.85h-1.14V77h1.42v3.3l0,1.49a4.18,4.18,0,0,1,2.62-1.15c2.18,0,3.33,1.65,3.33,4.2,0,2.82-1.7,4.47-3.62,4.47A3.77,3.77,0,0,1,511.72,88.25Zm4.56-3.4c0-1.81-.62-3-2.21-3a3.46,3.46,0,0,0-2.24,1.12v4.34a3.3,3.3,0,0,0,2.05.87C515.26,88.14,516.28,86.89,516.28,84.85Z"/><path class="cls-4" d="M521.26,88.25h0l-.13.85H520V77h1.41v3.3l0,1.49A4.16,4.16,0,0,1,524,80.64c2.17,0,3.32,1.65,3.32,4.2,0,2.82-1.7,4.47-3.62,4.47A3.75,3.75,0,0,1,521.26,88.25Zm4.55-3.4c0-1.81-.62-3-2.21-3a3.46,3.46,0,0,0-2.24,1.12v4.34a3.3,3.3,0,0,0,2,.87C524.79,88.14,525.81,86.89,525.81,84.85Z"/><path class="cls-4" d="M528.75,88.27c3.31-3.25,5.18-5.2,5.18-7a1.94,1.94,0,0,0-2.09-2.13,3.24,3.24,0,0,0-2.34,1.31l-.81-.8A4.33,4.33,0,0,1,532,78.06a3,3,0,0,1,3.3,3.19c0,2-1.88,4.06-4.49,6.75.61,0,1.28-.1,1.85-.1h3.19v1.2h-7.11Z"/><path class="cls-4" d="M538,88h2.52V80h-2v-.9a6.6,6.6,0,0,0,2.33-.8h1.08V88h2.28V89.1H538Z"/><path class="cls-4" d="M545.89,88.27c3.31-3.25,5.17-5.2,5.17-7A1.94,1.94,0,0,0,549,79.19a3.26,3.26,0,0,0-2.34,1.31l-.81-.8a4.33,4.33,0,0,1,3.33-1.64,3,3,0,0,1,3.29,3.19c0,2-1.88,4.06-4.48,6.75.6,0,1.27-.1,1.84-.1H553v1.2h-7.1Z"/><path class="cls-4" d="M555.13,88h2.51V80h-2v-.9a6.53,6.53,0,0,0,2.33-.8h1.09V88h2.27V89.1h-6.2Z"/><path class="cls-4" d="M568.57,79.47h-5.48V78.26h7.09v.87c-2.61,3.28-3.14,5.74-3.33,10h-1.47A15.8,15.8,0,0,1,568.57,79.47Z"/><path class="cls-4" d="M575.76,80.84h1.17l.12,1.19h.05a3.72,3.72,0,0,1,2.61-1.39A2.2,2.2,0,0,1,582,82.22a4,4,0,0,1,2.76-1.58c1.72,0,2.55,1.12,2.55,3.23V89.1h-1.42v-5c0-1.55-.5-2.21-1.55-2.21a3.07,3.07,0,0,0-2.1,1.27v6h-1.42v-5c0-1.55-.5-2.21-1.56-2.21a3.14,3.14,0,0,0-2.11,1.27v6h-1.41Z"/><path class="cls-4" d="M589.53,87c0-1.8,1.57-2.7,5.14-3.09,0-1.06-.35-2.08-1.73-2.08a4.65,4.65,0,0,0-2.5.89l-.55-1a6.32,6.32,0,0,1,3.29-1.07c2.06,0,2.92,1.34,2.92,3.4V89.1h-1.17l-.12-1h-.06A4.52,4.52,0,0,1,592,89.31,2.27,2.27,0,0,1,589.53,87Zm5.14.12V84.79c-2.8.34-3.76,1-3.76,2.07s.65,1.33,1.48,1.33A3.45,3.45,0,0,0,594.67,87.08Z"/><path class="cls-4" d="M598.73,80.84h1.18L600,82h.05a4,4,0,0,1,2.81-1.39c1.76,0,2.55,1.12,2.55,3.23V89.1H604v-5c0-1.55-.49-2.21-1.59-2.21a3.21,3.21,0,0,0-2.29,1.27v6h-1.42Z"/><path class="cls-4" d="M608,86.08V80.84h1.43v5c0,1.55.47,2.21,1.57,2.21.86,0,1.47-.42,2.26-1.39V80.84h1.41V89.1h-1.17l-.12-1.29h0a3.56,3.56,0,0,1-2.76,1.5C608.83,89.31,608,88.19,608,86.08Z"/><path class="cls-4" d="M617.78,82h-1.14v-1l1.14-.09V79.53c0-1.68.78-2.73,2.45-2.73a3.92,3.92,0,0,1,1.4.27l-.31,1.07a2.32,2.32,0,0,0-1-.2c-.8,0-1.17.54-1.17,1.59v1.31H621V82H619.2V89.1h-1.42Z"/><path class="cls-4" d="M621.71,87c0-1.8,1.57-2.7,5.14-3.09,0-1.06-.35-2.08-1.73-2.08a4.65,4.65,0,0,0-2.5.89l-.55-1a6.33,6.33,0,0,1,3.3-1.07c2,0,2.91,1.34,2.91,3.4V89.1h-1.17l-.12-1h0a4.57,4.57,0,0,1-2.78,1.19A2.27,2.27,0,0,1,621.71,87Zm5.14.12V84.79c-2.79.34-3.76,1-3.76,2.07s.66,1.33,1.48,1.33A3.45,3.45,0,0,0,626.85,87.08Z"/><path class="cls-4" d="M630.29,85a4,4,0,0,1,4-4.35,3.51,3.51,0,0,1,2.45,1l-.73.92a2.45,2.45,0,0,0-1.67-.74c-1.52,0-2.62,1.3-2.62,3.2s1,3.16,2.59,3.16a3,3,0,0,0,2-.83l.62.93a4.08,4.08,0,0,1-2.7,1.06C632,89.31,630.29,87.73,630.29,85Z"/><path class="cls-4" d="M638.85,86.55V82H637.6v-1l1.32-.09.17-2.31h1.19v2.31h2.26V82h-2.26v4.59c0,1,.32,1.6,1.29,1.6a3.2,3.2,0,0,0,.95-.22l.27,1a5.27,5.27,0,0,1-1.55.31C639.45,89.31,638.85,88.19,638.85,86.55Z"/><path class="cls-4" d="M644.31,86.08V80.84h1.43v5c0,1.55.47,2.21,1.57,2.21.86,0,1.47-.42,2.26-1.39V80.84H651V89.1h-1.17l-.12-1.29h-.05a3.58,3.58,0,0,1-2.76,1.5C645.1,89.31,644.31,88.19,644.31,86.08Z"/><path class="cls-4" d="M653.81,80.84H655l.12,1.5h0a2.86,2.86,0,0,1,2.38-1.7,2.13,2.13,0,0,1,.9.17L658.15,82a2.46,2.46,0,0,0-.81-.13c-.71,0-1.55.51-2.12,1.9v5.3h-1.41Z"/><path class="cls-4" d="M659.56,78.23a1,1,0,0,1,1.9,0,1,1,0,0,1-1.9,0Zm.23,2.61h1.41V89.1h-1.41Z"/><path class="cls-4" d="M664,80.84h1.17l.12,1.19h0a4,4,0,0,1,2.81-1.39c1.76,0,2.56,1.12,2.56,3.23V89.1h-1.42v-5c0-1.55-.48-2.21-1.58-2.21a3.23,3.23,0,0,0-2.3,1.27v6H664Z"/><path class="cls-4" d="M672.82,90.69A2.42,2.42,0,0,1,674,88.81v-.06a1.54,1.54,0,0,1-.74-1.35,2,2,0,0,1,.92-1.53v-.06a2.93,2.93,0,0,1-1.09-2.23,3,3,0,0,1,3.16-2.94,3.4,3.4,0,0,1,1.19.2h2.91v1.07h-1.72a2.42,2.42,0,0,1,.68,1.7,2.86,2.86,0,0,1-3.06,2.88A3.06,3.06,0,0,1,675,86.2a1.21,1.21,0,0,0-.54,1c0,.53.35.9,1.49.9h1.62c1.94,0,2.93.6,2.93,2,0,1.53-1.64,2.85-4.24,2.85C674.23,92.91,672.82,92.11,672.82,90.69Zm6.33-.43c0-.76-.61-1-1.69-1H676a3.88,3.88,0,0,1-1.09-.14,1.75,1.75,0,0,0-.86,1.4c0,.88.92,1.44,2.43,1.44S679.15,91.13,679.15,90.26Zm-1.09-6.68a1.78,1.78,0,1,0-3.55,0,1.78,1.78,0,1,0,3.55,0Z"/><rect class="cls-2" x="649" y="177.31" width="165" height="109.69"/><path class="cls-4" d="M665.55,193.67H667v9.94h4.95v1.21h-6.38Z"/><path class="cls-4" d="M672.33,208.2l.27-1.11a2.51,2.51,0,0,0,.64.12c1,0,1.55-.75,1.9-1.77l.19-.61L672,196.55h1.47l1.71,4.58c.25.71.55,1.56.81,2.33H676c.24-.75.48-1.6.7-2.33l1.5-4.58h1.38l-3.15,8.95c-.59,1.63-1.45,2.87-3.14,2.87A2.82,2.82,0,0,1,672.33,208.2Z"/><path class="cls-4" d="M681.22,196.55h1.17l.12,1.19h.06a3.68,3.68,0,0,1,2.6-1.39,2.2,2.2,0,0,1,2.31,1.58,4,4,0,0,1,2.76-1.58c1.72,0,2.55,1.12,2.55,3.23v5.24h-1.41v-5c0-1.55-.5-2.21-1.56-2.21a3.09,3.09,0,0,0-2.1,1.27v6h-1.41v-5c0-1.55-.5-2.21-1.57-2.21a3.16,3.16,0,0,0-2.11,1.27v6h-1.41Z"/><path class="cls-4" d="M695.51,196.55h1.17l.12,1h.05a4.37,4.37,0,0,1,2.68-1.16c2.15,0,3.31,1.65,3.31,4.22,0,2.8-1.71,4.45-3.62,4.45a4,4,0,0,1-2.33-1l0,1.44v2.79h-1.41Zm5.86,4c0-1.82-.62-3-2.2-3a3.54,3.54,0,0,0-2.25,1.13V203a3.35,3.35,0,0,0,2.06.87C700.35,203.85,701.37,202.61,701.37,200.57Z"/><path class="cls-4" d="M705.08,192.71h1.41V196l0,1.7a4,4,0,0,1,2.79-1.36c1.76,0,2.55,1.12,2.55,3.23v5.24h-1.41v-5c0-1.55-.48-2.21-1.59-2.21a3.21,3.21,0,0,0-2.29,1.27v6h-1.41Z"/><path class="cls-4" d="M713.83,200.7c0-2.77,1.83-4.35,3.88-4.35s3.88,1.58,3.88,4.35-1.83,4.32-3.88,4.32S713.83,203.44,713.83,200.7Zm6.3,0c0-1.9-1-3.19-2.42-3.19s-2.41,1.29-2.41,3.19,1,3.16,2.41,3.16S720.13,202.59,720.13,200.7Z"/><path class="cls-4" d="M723.19,200.7c0-2.68,1.73-4.35,3.64-4.35a3.52,3.52,0,0,1,2.35,1l-.07-1.41v-3.18h1.43v12.11h-1.17l-.13-1h0a3.78,3.78,0,0,1-2.53,1.17C724.55,205,723.19,203.46,723.19,200.7Zm5.92,2v-4.32a3,3,0,0,0-2-.87c-1.34,0-2.41,1.28-2.41,3.17s.84,3.16,2.31,3.16A2.88,2.88,0,0,0,729.11,202.71Z"/><path class="cls-4" d="M732.74,200.7c0-2.7,1.85-4.35,3.76-4.35,2.14,0,3.35,1.51,3.35,3.88a4.66,4.66,0,0,1-.06.8h-5.65a2.75,2.75,0,0,0,2.79,2.87,3.85,3.85,0,0,0,2.09-.65l.5.92a5,5,0,0,1-2.76.85A4,4,0,0,1,732.74,200.7Zm5.86-.68c0-1.66-.76-2.56-2.06-2.56a2.56,2.56,0,0,0-2.42,2.56Z"/><path class="cls-4" d="M741.91,196.55h1.17l.13,1h0a4.37,4.37,0,0,1,2.67-1.16c2.15,0,3.31,1.65,3.31,4.22,0,2.8-1.71,4.45-3.62,4.45a4,4,0,0,1-2.33-1l0,1.44v2.79h-1.42Zm5.86,4c0-1.82-.62-3-2.2-3a3.49,3.49,0,0,0-2.24,1.13V203a3.32,3.32,0,0,0,2,.87C746.76,203.85,747.77,202.61,747.77,200.57Z"/><path class="cls-4" d="M751.48,203.15V192.71h1.41v10.54c0,.44.19.61.4.61a1.36,1.36,0,0,0,.31,0l.19,1a1.84,1.84,0,0,1-.81.14C751.91,205,751.48,204.36,751.48,203.15Z"/><path class="cls-4" d="M755.25,200.7c0-2.7,1.85-4.35,3.76-4.35,2.14,0,3.35,1.51,3.35,3.88a6.1,6.1,0,0,1-.05.8h-5.66a2.75,2.75,0,0,0,2.79,2.87,3.83,3.83,0,0,0,2.09-.65l.5.92a5,5,0,0,1-2.76.85A4,4,0,0,1,755.25,200.7Zm5.87-.68c0-1.66-.76-2.56-2.07-2.56a2.56,2.56,0,0,0-2.42,2.56Z"/><path class="cls-4" d="M764.49,202.27v-4.58h-1.24v-1.05l1.31-.09.17-2.31h1.19v2.31h2.26v1.14h-2.26v4.59c0,1,.33,1.6,1.3,1.6a3.2,3.2,0,0,0,.95-.22l.27,1.05a5,5,0,0,1-1.55.31C765.1,205,764.49,203.9,764.49,202.27Z"/><path class="cls-4" d="M769.85,193.94a1,1,0,0,1,1.9,0,1,1,0,0,1-1.9,0Zm.23,2.61h1.41v8.27h-1.41Z"/><path class="cls-4" d="M773.7,200.7c0-2.77,1.82-4.35,3.88-4.35s3.88,1.58,3.88,4.35-1.83,4.32-3.88,4.32S773.7,203.44,773.7,200.7Zm6.29,0c0-1.9-1-3.19-2.41-3.19s-2.42,1.29-2.42,3.19,1,3.16,2.42,3.16S780,202.59,780,200.7Z"/><path class="cls-4" d="M783.66,196.55h1.17l.12,1.19h0a4,4,0,0,1,2.82-1.39c1.75,0,2.55,1.12,2.55,3.23v5.24H789v-5c0-1.55-.48-2.21-1.58-2.21a3.23,3.23,0,0,0-2.3,1.27v6h-1.41Z"/><polygon class="cls-3" points="633 213.65 648 232.1 633 250.55 633 213.65"/><rect class="cls-2" x="494" y="177.31" width="139" height="109.69"/><path class="cls-4" d="M509.72,203.37l.87-1a4.47,4.47,0,0,0,3.12,1.39c1.48,0,2.36-.73,2.36-1.82s-.81-1.5-1.88-2l-1.62-.7a3.14,3.14,0,0,1-2.29-2.87c0-1.7,1.5-3,3.55-3a4.71,4.71,0,0,1,3.34,1.38l-.77.92a3.63,3.63,0,0,0-2.57-1.06c-1.26,0-2.11.63-2.11,1.63s1,1.48,1.88,1.86l1.61.68c1.31.56,2.33,1.32,2.33,3s-1.47,3.18-3.85,3.18A5.55,5.55,0,0,1,509.72,203.37Z"/><path class="cls-4" d="M519,200.7a4,4,0,0,1,4-4.35,3.49,3.49,0,0,1,2.45,1l-.72.92a2.47,2.47,0,0,0-1.68-.73c-1.51,0-2.62,1.29-2.62,3.19s1,3.16,2.59,3.16a3,3,0,0,0,2-.83l.63.94a4.14,4.14,0,0,1-2.71,1.05C520.7,205,519,203.44,519,200.7Z"/><path class="cls-4" d="M527.48,196.55h1.17l.12,1.5h.05a2.86,2.86,0,0,1,2.38-1.7,2.13,2.13,0,0,1,.9.17l-.28,1.22a2.46,2.46,0,0,0-.81-.13c-.7,0-1.55.51-2.12,1.9v5.31h-1.41Z"/><path class="cls-4" d="M532.67,200.7c0-2.7,1.84-4.35,3.75-4.35,2.14,0,3.35,1.51,3.35,3.88a6.1,6.1,0,0,1,0,.8h-5.66a2.76,2.76,0,0,0,2.8,2.87,3.82,3.82,0,0,0,2.08-.65l.5.92a5,5,0,0,1-2.76.85A4,4,0,0,1,532.67,200.7Zm5.86-.68c0-1.66-.76-2.56-2.07-2.56a2.56,2.56,0,0,0-2.41,2.56Z"/><path class="cls-4" d="M541.22,200.7c0-2.7,1.84-4.35,3.75-4.35,2.14,0,3.35,1.51,3.35,3.88a6.1,6.1,0,0,1-.05.8h-5.66a2.76,2.76,0,0,0,2.8,2.87,3.82,3.82,0,0,0,2.08-.65l.5.92a5,5,0,0,1-2.76.85A4,4,0,0,1,541.22,200.7Zm5.86-.68c0-1.66-.76-2.56-2.07-2.56A2.56,2.56,0,0,0,542.6,200Z"/><path class="cls-4" d="M550.39,196.55h1.17l.12,1.19h.05a4,4,0,0,1,2.81-1.39c1.76,0,2.55,1.12,2.55,3.23v5.24h-1.41v-5c0-1.55-.48-2.21-1.59-2.21a3.21,3.21,0,0,0-2.29,1.27v6h-1.41Z"/><path class="cls-4" d="M559.59,193.94a1,1,0,0,1,1.9,0,1,1,0,0,1-1.9,0Zm.22,2.61h1.42v8.27h-1.42Z"/><path class="cls-4" d="M564.05,196.55h1.18l.12,1.19h0a4,4,0,0,1,2.81-1.39c1.76,0,2.55,1.12,2.55,3.23v5.24h-1.41v-5c0-1.55-.48-2.21-1.59-2.21a3.21,3.21,0,0,0-2.29,1.27v6h-1.42Z"/><path class="cls-4" d="M572.85,206.4a2.37,2.37,0,0,1,1.22-1.87v-.07a1.54,1.54,0,0,1-.74-1.34,1.93,1.93,0,0,1,.91-1.53v-.07a2.91,2.91,0,0,1-1.08-2.23,3,3,0,0,1,3.15-2.94,3.59,3.59,0,0,1,1.19.2h2.92v1.08h-1.73a2.35,2.35,0,0,1,.69,1.7,2.86,2.86,0,0,1-3.07,2.87,2.94,2.94,0,0,1-1.26-.29,1.25,1.25,0,0,0-.53,1c0,.52.34.9,1.48.9h1.62c2,0,2.93.59,2.93,2s-1.63,2.85-4.24,2.85C574.26,208.62,572.85,207.82,572.85,206.4Zm6.32-.43c0-.76-.6-1-1.69-1H576a4.21,4.21,0,0,1-1.09-.13,1.72,1.72,0,0,0-.86,1.39c0,.88.91,1.44,2.43,1.44S579.17,206.84,579.17,206Zm-1.08-6.68a1.78,1.78,0,1,0-3.55,0,1.78,1.78,0,1,0,3.55,0Z"/><path class="cls-4" d="M585.1,202.67c0-1.8,1.57-2.7,5.14-3.09,0-1.05-.35-2.07-1.73-2.07a4.64,4.64,0,0,0-2.5.88l-.55-1a6.33,6.33,0,0,1,3.3-1.07c2,0,2.91,1.34,2.91,3.4v5.07H590.5l-.12-1h0a4.51,4.51,0,0,1-2.78,1.19A2.27,2.27,0,0,1,585.1,202.67Zm5.14.12V200.5c-2.79.34-3.76,1-3.76,2.07s.66,1.33,1.48,1.33A3.41,3.41,0,0,0,590.24,202.79Z"/><path class="cls-4" d="M594.31,196.55h1.17l.12,1.19h0a4,4,0,0,1,2.81-1.39c1.76,0,2.55,1.12,2.55,3.23v5.24H599.6v-5c0-1.55-.48-2.21-1.59-2.21a3.21,3.21,0,0,0-2.29,1.27v6h-1.41Z"/><path class="cls-4" d="M603.13,200.7c0-2.68,1.72-4.35,3.64-4.35a3.5,3.5,0,0,1,2.34,1l-.07-1.41v-3.18h1.43v12.11H609.3l-.12-1h0A3.8,3.8,0,0,1,606.6,205C604.49,205,603.13,203.46,603.13,200.7Zm5.91,2v-4.32a2.91,2.91,0,0,0-2-.87c-1.35,0-2.41,1.28-2.41,3.17s.84,3.16,2.31,3.16A2.86,2.86,0,0,0,609,202.71Z"/><path class="cls-4" d="M510.41,222.15V211.71h1.42v10.54c0,.44.19.61.39.61a1.44,1.44,0,0,0,.32,0l.18,1a1.81,1.81,0,0,1-.81.14C510.84,224,510.41,223.36,510.41,222.15Z"/><path class="cls-4" d="M514.19,219.7c0-2.7,1.84-4.35,3.76-4.35,2.14,0,3.34,1.51,3.34,3.88a4.75,4.75,0,0,1,0,.8h-5.66a2.77,2.77,0,0,0,2.8,2.87,3.82,3.82,0,0,0,2.08-.65l.5.92a5,5,0,0,1-2.75.85A4,4,0,0,1,514.19,219.7Zm5.86-.68c0-1.66-.76-2.56-2.07-2.56a2.56,2.56,0,0,0-2.41,2.56Z"/><path class="cls-4" d="M523.24,220.79v-5.24h1.43v5c0,1.55.46,2.21,1.57,2.21.86,0,1.46-.42,2.26-1.39v-5.87h1.41v8.27h-1.17l-.12-1.3h0a3.58,3.58,0,0,1-2.76,1.5C524,224,523.24,222.9,523.24,220.79Z"/><path class="cls-4" d="M532.74,211.71h1.39v8.2h0l3.57-4.36h1.57l-2.81,3.32,3.19,4.95h-1.55l-2.45-4-1.57,1.8v2.18h-1.39Z"/><path class="cls-4" d="M540.58,221.67c0-1.8,1.57-2.7,5.14-3.09,0-1.05-.35-2.07-1.73-2.07a4.64,4.64,0,0,0-2.5.88l-.55-1a6.32,6.32,0,0,1,3.29-1.07c2.06,0,2.92,1.34,2.92,3.4v5.07H546l-.13-1h-.05A4.46,4.46,0,0,1,543,224,2.27,2.27,0,0,1,540.58,221.67Zm5.14.12V219.5c-2.8.34-3.76,1-3.76,2.07s.65,1.33,1.48,1.33A3.41,3.41,0,0,0,545.72,221.79Z"/><path class="cls-4" d="M549.78,215.55H551l.13,1h0a4.37,4.37,0,0,1,2.67-1.16c2.16,0,3.31,1.65,3.31,4.22,0,2.8-1.71,4.45-3.62,4.45a4,4,0,0,1-2.33-1l0,1.44v2.79h-1.42Zm5.86,4c0-1.82-.62-3-2.2-3a3.49,3.49,0,0,0-2.24,1.13V222a3.32,3.32,0,0,0,2,.87C554.63,222.85,555.64,221.61,555.64,219.57Z"/><path class="cls-4" d="M559.35,211.71h1.41V215l0,1.7a4,4,0,0,1,2.79-1.36c1.76,0,2.56,1.12,2.56,3.23v5.24h-1.42v-5c0-1.55-.48-2.21-1.58-2.21a3.23,3.23,0,0,0-2.3,1.27v6h-1.41Z"/><path class="cls-4" d="M568.1,219.7c0-2.7,1.85-4.35,3.76-4.35,2.14,0,3.35,1.51,3.35,3.88a6.1,6.1,0,0,1-.05.8H569.5a2.75,2.75,0,0,0,2.79,2.87,3.83,3.83,0,0,0,2.09-.65l.5.92a5,5,0,0,1-2.76.85A4,4,0,0,1,568.1,219.7ZM574,219c0-1.66-.76-2.56-2.07-2.56a2.58,2.58,0,0,0-2.42,2.56Z"/><path class="cls-4" d="M577.28,215.55h1.17l.12,1.5h0a2.86,2.86,0,0,1,2.38-1.7,2.13,2.13,0,0,1,.9.17l-.28,1.22a2.55,2.55,0,0,0-.81-.13c-.71,0-1.55.51-2.12,1.9v5.31h-1.41Z"/><path class="cls-4" d="M582.46,219.7c0-2.7,1.85-4.35,3.76-4.35,2.14,0,3.35,1.51,3.35,3.88a6.1,6.1,0,0,1-.05.8h-5.66a2.75,2.75,0,0,0,2.79,2.87,3.83,3.83,0,0,0,2.09-.65l.5.92a5,5,0,0,1-2.76.85A4,4,0,0,1,582.46,219.7Zm5.87-.68c0-1.66-.76-2.56-2.07-2.56a2.56,2.56,0,0,0-2.42,2.56Z"/><path class="cls-4" d="M590.7,222.88l.71-.93a3.81,3.81,0,0,0,2.46,1c1.11,0,1.66-.58,1.66-1.29s-1-1.22-1.91-1.56c-1.19-.43-2.45-1-2.45-2.38s1.07-2.35,2.89-2.35a4.32,4.32,0,0,1,2.61.94l-.69.88a3.11,3.11,0,0,0-1.92-.73c-1,0-1.53.56-1.53,1.19,0,.78.86,1.07,1.81,1.43,1.21.44,2.55.93,2.55,2.5,0,1.34-1.08,2.46-3.07,2.46A5.08,5.08,0,0,1,590.7,222.88Z"/><path class="cls-4" d="M598.63,212.94a1,1,0,0,1,1.9,0,1,1,0,0,1-1.9,0Zm.23,2.61h1.41v8.27h-1.41Z"/><path class="cls-4" d="M602.16,222.88l.71-.93a3.86,3.86,0,0,0,2.47,1c1.1,0,1.65-.58,1.65-1.29s-1-1.22-1.91-1.56c-1.19-.43-2.45-1-2.45-2.38s1.07-2.35,2.9-2.35a4.29,4.29,0,0,1,2.6.94l-.69.88a3.1,3.1,0,0,0-1.91-.73c-1.06,0-1.54.56-1.54,1.19,0,.78.86,1.07,1.81,1.43,1.21.44,2.55.93,2.55,2.5,0,1.34-1.08,2.46-3.06,2.46A5.1,5.1,0,0,1,602.16,222.88Z"/><path class="cls-4" d="M510.86,17.1h4.54c2.9,0,5.26,1,5.26,4.2s-2.38,4.42-5.17,4.42h-1.65v4.43h-3Zm4.44,6.28c1.65,0,2.44-.72,2.44-2.08s-.9-1.86-2.52-1.86h-1.38v3.94Z"/><path class="cls-4" d="M523,17.1h4.76c2.8,0,5.09,1,5.09,4.06a3.81,3.81,0,0,1-2.35,3.76l3,5.23h-3.34l-2.54-4.71h-1.64v4.71h-3Zm4.52,6c1.56,0,2.41-.66,2.41-1.94s-.85-1.72-2.41-1.72h-1.54V23.1Z"/><path class="cls-4" d="M535.38,17.1h8.27v2.48h-5.29V22.2h4.5v2.46h-4.5v3h5.49v2.49h-8.47Z"/><path class="cls-4" d="M549.07,19.58h-3.63V17.1H555.7v2.48h-3.63V30.15h-3Z"/><path class="cls-4" d="M557.77,17.1h4.76c2.8,0,5.09,1,5.09,4.06a3.81,3.81,0,0,1-2.35,3.76l3,5.23h-3.35l-2.53-4.71h-1.64v4.71h-3Zm4.52,6c1.56,0,2.41-.66,2.41-1.94s-.85-1.72-2.41-1.72h-1.54V23.1Z"/><path class="cls-4" d="M570.2,17.1h8.27v2.48h-5.29V22.2h4.5v2.46h-4.5v3h5.49v2.49H570.2Z"/><path class="cls-4" d="M583.76,17.1h3.59l4.14,13h-3.16L587.51,27h-4l-.81,3.11h-3Zm.33,7.64h2.82l-.31-1.2c-.36-1.3-.73-2.84-1.07-4.2h-.08c-.33,1.38-.67,2.9-1,4.2Z"/><path class="cls-4" d="M594,19.58h-3.63V17.1h10.27v2.48H597V30.15h-3Z"/><path class="cls-4" d="M602.72,17.1H606l2.13,5.8c.26.76.5,1.6.77,2.4H609c.26-.8.49-1.64.75-2.4l2.09-5.8h3.24v13h-2.71V25.36c0-1.28.24-3.18.38-4.44h-.08L611.57,24l-1.89,5H608l-1.89-5-1-3.1H605c.14,1.26.38,3.16.38,4.44v4.79h-2.68Z"/><path class="cls-4" d="M618.18,17.1h8.27v2.48h-5.29V22.2h4.5v2.46h-4.5v3h5.49v2.49h-8.47Z"/><path class="cls-4" d="M629.29,17.1h3.06l3.45,6.48,1.3,2.88h.08c-.13-1.38-.37-3.22-.37-4.76V17.1h2.84v13h-3.06l-3.45-6.51-1.3-2.84h-.08c.12,1.44.37,3.18.37,4.72v4.63h-2.84Z"/><path class="cls-4" d="M645.35,19.58h-3.63V17.1H652v2.48h-3.63V30.15h-3Z"/><path class="cls-4" d="M660.56,17.1h3.59l4.14,13h-3.17L664.31,27h-4l-.81,3.11h-3Zm.32,7.64h2.82l-.3-1.2c-.37-1.3-.73-2.84-1.08-4.2h-.08c-.32,1.38-.67,2.9-1,4.2Z"/><path class="cls-4" d="M669.72,17.1h3.07l3.44,6.48,1.3,2.88h.08c-.12-1.38-.36-3.22-.36-4.76V17.1h2.84v13H677l-3.44-6.51-1.3-2.84h-.08c.12,1.44.36,3.18.36,4.72v4.63h-2.84Z"/><path class="cls-4" d="M683.21,17.1h3.73c4,0,6.63,2,6.63,6.46s-2.59,6.59-6.47,6.59h-3.89Zm3.55,10.66c2.25,0,3.75-1.08,3.75-4.2s-1.5-4.08-3.75-4.08h-.57v8.28Z"/><path class="cls-4" d="M702.72,19.58h-3.63V17.1h10.26v2.48h-3.63V30.15h-3Z"/><path class="cls-4" d="M711.42,17.1h4.76c2.8,0,5.09,1,5.09,4.06a3.81,3.81,0,0,1-2.35,3.76l3,5.23h-3.34L716,25.44H714.4v4.71h-3Zm4.52,6c1.56,0,2.41-.66,2.41-1.94s-.85-1.72-2.41-1.72H714.4V23.1Z"/><path class="cls-4" d="M723.85,17.1h8.27v2.48h-5.29V22.2h4.5v2.46h-4.5v3h5.49v2.49h-8.47Z"/><path class="cls-4" d="M737.41,17.1H741l4.14,13H742L741.17,27h-4l-.81,3.11h-3Zm.33,7.64h2.82l-.31-1.2c-.36-1.3-.73-2.84-1.07-4.2h-.08c-.33,1.38-.67,2.9-1,4.2Z"/><path class="cls-4" d="M747.67,19.58H744V17.1h10.27v2.48h-3.63V30.15h-3Z"/><path class="cls-4" d="M756.38,17.1h3.26l2.13,5.8c.26.76.51,1.6.77,2.4h.08c.26-.8.49-1.64.75-2.4l2.09-5.8h3.24v13H766V25.36c0-1.28.24-3.18.38-4.44h-.08L765.22,24l-1.89,5h-1.64l-1.89-5-1-3.1h-.08c.14,1.26.38,3.16.38,4.44v4.79h-2.67Z"/><path class="cls-4" d="M771.83,17.1h8.27v2.48h-5.29V22.2h4.5v2.46h-4.5v3h5.49v2.49h-8.47Z"/><path class="cls-4" d="M782.94,17.1H786l3.45,6.48,1.3,2.88h.08c-.12-1.38-.37-3.22-.37-4.76V17.1h2.84v13h-3.06l-3.45-6.51-1.3-2.84h-.08c.13,1.44.37,3.18.37,4.72v4.63h-2.84Z"/><path class="cls-4" d="M799,19.58h-3.63V17.1h10.26v2.48H802V30.15h-3Z"/><path class="cls-4" d="M996.33,17.1h8.61v2.48h-5.53v3h4.73v2.48h-4.73v5.06h-3.08Z"/><path class="cls-4" d="M1006.45,23.56c0-4.26,2.51-6.7,6.2-6.7s6.2,2.46,6.2,6.7-2.51,6.82-6.2,6.82S1006.45,27.82,1006.45,23.56Zm9.24,0c0-2.6-1.18-4.16-3-4.16s-3,1.56-3,4.16,1.18,4.28,3,4.28S1015.69,26.18,1015.69,23.56Z"/><path class="cls-4" d="M1021.43,17.1h3.08V27.66h5.4v2.48h-8.48Z"/><path class="cls-4" d="M1032.28,17.1h3.08V27.66h5.41v2.48h-8.49Z"/><path class="cls-4" d="M1041.73,23.56c0-4.26,2.52-6.7,6.2-6.7s6.2,2.46,6.2,6.7-2.51,6.82-6.2,6.82S1041.73,27.82,1041.73,23.56Zm9.24,0c0-2.6-1.17-4.16-3-4.16s-3,1.56-3,4.16,1.18,4.28,3,4.28S1051,26.18,1051,23.56Z"/><path class="cls-4" d="M1055.39,17.1h3.17l.94,6.1c.17,1.36.38,2.74.54,4.12h.09c.27-1.38.54-2.76.81-4.12l1.47-6.1H1065l1.47,6.1c.27,1.32.54,2.72.81,4.12h.09c.18-1.4.37-2.78.56-4.12l1-6.1h2.95l-2.43,13h-3.88l-1.34-5.92c-.23-1-.4-2.06-.54-3h-.09c-.16,1-.33,2-.56,3l-1.28,5.92h-3.81Z"/><path class="cls-4" d="M1072.82,24H1078v2.08h-5.16Z"/><path class="cls-4" d="M1080.41,24.1v-7h3.1v7.3c0,2.56.84,3.44,2.37,3.44s2.41-.88,2.41-3.44V17.1h3v7c0,4.38-1.86,6.28-5.38,6.28S1080.41,28.48,1080.41,24.1Z"/><path class="cls-4" d="M1094.43,17.1h4.69c3,0,5.42,1,5.42,4.2s-2.45,4.42-5.34,4.42h-1.69v4.42h-3.08Zm4.58,6.28c1.7,0,2.52-.72,2.52-2.08s-.92-1.86-2.6-1.86h-1.42v3.94Z"/></svg>